<svg width="90" height="24" viewBox="0 0 90 24" fill="none" xmlns="http://www.w3.org/2000/svg">
<path d="M58.0391 21.7183H18.4492V17.3652H58.0391C59.0979 17.3652 59.9555 18.2229 59.9555 19.2817V19.8018C59.9555 20.8606 59.0979 21.7183 58.0391 21.7183Z" fill="#FED600"/>
<path d="M5.17145 3.15674L0 14.6165H1.72893L3.35727 11.0154H7.53126L9.17494 14.6165H10.8647L5.7597 3.15674H5.17145ZM6.84753 9.4433H4.06828L5.46131 6.36225L6.84753 9.4433Z" fill="white"/>
<path d="M18.3871 7.02038C18.0904 6.70324 17.7647 6.44748 17.4135 6.2531C16.8627 5.95131 16.2404 5.79785 15.5652 5.79785C14.3972 5.79785 13.3844 6.24287 12.5574 7.12098C11.7322 7.99568 11.3145 9.06134 11.3145 10.289C11.3145 11.5166 11.7288 12.6198 12.5455 13.4962C13.3673 14.3777 14.3733 14.8244 15.5379 14.8244C16.1926 14.8244 16.8048 14.6795 17.3572 14.3948C17.7238 14.2055 18.0682 13.9532 18.3871 13.6411V21.718H19.8807V6.00587H18.3871V7.02038ZM17.6351 8.17812C18.1824 8.76295 18.4501 9.47396 18.4501 10.3521C18.4501 10.9216 18.3274 11.4382 18.087 11.8883C17.8483 12.3351 17.5004 12.6931 17.0571 12.9557C16.1705 13.4775 15.1184 13.4843 14.2591 12.9557C13.8294 12.6914 13.4816 12.3146 13.2258 11.8372C12.9684 11.3564 12.8371 10.8482 12.8371 10.3231C12.8371 9.79793 12.9667 9.2847 13.2224 8.80899C13.4765 8.33669 13.8209 7.96499 14.2472 7.70582C14.6717 7.44665 15.144 7.31536 15.647 7.31536C16.4416 7.31536 17.0912 7.59669 17.6351 8.17812Z" fill="white"/>
<path d="M27.3853 10.0434C27.3853 11.2626 27.3051 11.7519 27.2403 11.9463C27.1005 12.3521 26.8533 12.6709 26.4833 12.9216C26.115 13.1722 25.6546 13.2984 25.1158 13.2984C24.577 13.2984 24.1081 13.1671 23.7262 12.9096C23.3443 12.6522 23.0919 12.3129 22.9589 11.8747C22.8652 11.5524 22.8174 10.9352 22.8174 10.0417V6.00415H21.2402V10.1594C21.2402 11.3597 21.3783 12.2396 21.6631 12.8534C21.9495 13.4723 22.3912 13.96 22.9743 14.3061C23.5523 14.6488 24.2752 14.821 25.1227 14.821C25.9701 14.821 26.6913 14.6471 27.2642 14.3044C27.8405 13.9583 28.2787 13.4757 28.5652 12.8653C28.8499 12.26 28.988 11.399 28.988 10.2327V6.00244H27.387V10.04L27.3853 10.0434Z" fill="white"/>
<path d="M37.3461 7.04596C37.0255 6.71517 36.6726 6.44919 36.2907 6.2514C35.7126 5.95131 35.0596 5.79785 34.3503 5.79785C33.1226 5.79785 32.0587 6.24117 31.1857 7.11586C30.3127 7.99056 29.8711 9.05793 29.8711 10.289C29.8711 11.52 30.3093 12.6249 31.1738 13.5013C32.0382 14.3794 33.0971 14.8244 34.3213 14.8244C35.0084 14.8244 35.653 14.6812 36.2344 14.3965C36.6317 14.2021 37.0034 13.9412 37.3478 13.6173V14.6164H38.8977V6.00587H37.3478V7.04596H37.3461ZM36.5549 8.18323C37.133 8.76807 37.4143 9.47738 37.4143 10.3521C37.4143 10.9182 37.2864 11.4348 37.0324 11.8832C36.7783 12.3299 36.4117 12.6897 35.9411 12.9523C34.9982 13.4792 33.8729 13.4843 32.9573 12.9523C32.502 12.6863 32.1337 12.3095 31.8626 11.8321C31.5915 11.3546 31.4534 10.8465 31.4534 10.3231C31.4534 9.79963 31.5898 9.28811 31.8592 8.81581C32.1269 8.34351 32.4935 7.97181 32.9453 7.71093C33.3989 7.45006 33.9019 7.31706 34.439 7.31706C35.2847 7.31706 35.9786 7.6001 36.5566 8.18494L36.5549 8.18323Z" fill="white"/>
<path d="M46.4749 3.56619C45.7332 3.28997 44.5891 3.15527 42.9812 3.15527H40.5566V14.615H44.1407C45.4809 14.615 46.5448 14.4036 47.3036 13.9875C48.0674 13.5681 48.6949 12.9133 49.1689 12.0404C49.6395 11.1725 49.8782 10.158 49.8782 9.02239C49.8782 7.70949 49.5764 6.56028 48.9831 5.60545C48.3829 4.64209 47.5406 3.95495 46.4766 3.56619H46.4749ZM48.3044 9.04285C48.3044 9.99428 48.0913 10.8059 47.6702 11.4572C47.2541 12.1 46.6744 12.5519 45.948 12.7991C45.4195 12.9781 44.434 13.0685 43.0239 13.0685H42.0724V4.74269H42.555C44.023 4.74269 45.0853 4.84328 45.711 5.04278C46.5209 5.30024 47.1603 5.78277 47.6139 6.47673C48.0726 7.17922 48.3044 8.04369 48.3044 9.04285Z" fill="white"/>
<path d="M55.1434 5.79785C53.8118 5.79785 52.6932 6.28379 51.8203 7.24374C51.0274 8.11162 50.625 9.15171 50.625 10.3333C50.625 11.5149 51.0496 12.584 51.885 13.474C52.7256 14.3692 53.822 14.8244 55.1417 14.8244C56.4614 14.8244 57.5493 14.3709 58.3899 13.474C59.227 12.584 59.6516 11.5269 59.6516 10.3333C59.6516 9.13977 59.2492 8.1048 58.4563 7.23522C57.5834 6.28038 56.4682 5.79785 55.1417 5.79785H55.1434ZM58.1341 10.3555C58.1341 10.8926 57.9994 11.4007 57.7317 11.8645C57.4657 12.3265 57.1008 12.6897 56.649 12.9404C56.1937 13.1927 55.6856 13.3206 55.14 13.3206C54.5944 13.3206 54.0863 13.1927 53.631 12.9404C53.1792 12.6897 52.8143 12.3282 52.5483 11.8645C52.2806 11.4007 52.1459 10.8926 52.1459 10.3555C52.1459 9.50977 52.4341 8.8107 53.0291 8.21563C53.6242 7.62056 54.3148 7.3307 55.14 7.3307C55.9653 7.3307 56.6507 7.62056 57.2475 8.21563C57.8442 8.8107 58.1341 9.51148 58.1341 10.3555Z" fill="white"/>
<path d="M67.5249 12.0318C66.8514 12.9201 66.0073 13.3515 64.9468 13.3515C64.3756 13.3515 63.8539 13.2185 63.3952 12.9542C62.9399 12.6917 62.5751 12.3166 62.3142 11.8408C62.0499 11.3617 61.9169 10.8434 61.9169 10.2995C61.9169 9.45546 62.1982 8.75809 62.7763 8.16814C63.3543 7.57989 64.0619 7.29344 64.94 7.29344C66.0414 7.29344 66.8855 7.72311 67.5214 8.60804L67.6647 8.80753L68.8616 8.02832L68.7406 7.8186C68.4933 7.38551 68.1864 7.02233 67.8318 6.741C67.4788 6.46137 67.0457 6.23119 66.5444 6.05897C66.0449 5.88676 65.518 5.7998 64.9792 5.7998C64.1233 5.7998 63.3355 6.001 62.6416 6.39828C61.9442 6.79727 61.39 7.35994 60.9911 8.06924C60.5938 8.77684 60.3926 9.55435 60.3926 10.3779C60.3926 11.609 60.824 12.6678 61.6748 13.5271C62.5273 14.3865 63.6117 14.823 64.8991 14.823C65.7328 14.823 66.4882 14.6508 67.1446 14.3132C67.8062 13.9722 68.3416 13.4845 68.7337 12.8673L68.8667 12.6576L67.6715 11.8357L67.5231 12.0318H67.5249Z" fill="white"/>
<path d="M72.5498 3H71.0408V6.00602H69.6836V7.41952H71.0408V14.6166H72.5498V7.41952H74.1287V6.00602H72.5498V3Z" fill="white"/>
<path d="M79.0245 5.79785C77.6929 5.79785 76.5743 6.28379 75.7014 7.24374C74.9085 8.11162 74.5078 9.15171 74.5078 10.3333C74.5078 11.5149 74.9324 12.584 75.7679 13.474C76.6084 14.3692 77.7048 14.8244 79.0245 14.8244C80.3442 14.8244 81.4338 14.3709 82.2727 13.474C83.1098 12.584 83.5344 11.5269 83.5344 10.3333C83.5344 9.13977 83.132 8.1048 82.3392 7.23522C81.4662 6.28038 80.3511 5.79785 79.0245 5.79785ZM82.0169 10.3555C82.0169 10.8909 81.8805 11.399 81.6145 11.8645C81.3468 12.3265 80.9836 12.6897 80.5318 12.9404C80.0765 13.1927 79.5684 13.3206 79.0228 13.3206C78.4772 13.3206 77.9691 13.1927 77.5138 12.9404C77.062 12.6897 76.6971 12.3282 76.4311 11.8645C76.1634 11.399 76.0287 10.8926 76.0287 10.3555C76.0287 9.51148 76.3186 8.8107 76.9119 8.21563C77.507 7.62056 78.1976 7.3307 79.0228 7.3307C79.8481 7.3307 80.5335 7.62056 81.1303 8.21563C81.727 8.8107 82.0169 9.51148 82.0169 10.3555Z" fill="white"/>
<path d="M87.5474 5.79785C87.1313 5.79785 86.7272 5.92914 86.3504 6.18831C86.1595 6.3196 85.9736 6.48499 85.7929 6.68448V6.00587H84.2617V14.6147H85.7929V11.6189C85.7929 10.2447 85.8525 9.32562 85.9685 8.88742C86.1168 8.33839 86.3283 7.93259 86.5977 7.68195C86.8585 7.43983 87.116 7.32218 87.3837 7.32218C87.4553 7.32218 87.5866 7.34264 87.8048 7.44153L88.0146 7.53702L88.7818 6.23776L88.5585 6.10817C88.2055 5.90186 87.8662 5.79785 87.5474 5.79785Z" fill="white"/>
<path d="M89.8507 3.82531C89.7501 3.64287 89.6137 3.49964 89.4415 3.39564C89.2692 3.29163 89.0834 3.23877 88.8839 3.23877C88.6844 3.23877 88.4986 3.29163 88.3246 3.39564C88.1507 3.49964 88.0143 3.64287 87.9137 3.82702C87.8131 4.00946 87.7637 4.20554 87.7637 4.41526C87.7637 4.62498 87.8131 4.81595 87.9137 4.99669C88.0143 5.17743 88.1507 5.32065 88.3246 5.42466C88.4986 5.53037 88.6844 5.58152 88.8822 5.58152C89.08 5.58152 89.2658 5.52867 89.4398 5.42295C89.6137 5.31724 89.7501 5.17401 89.849 4.99498C89.9496 4.81425 89.999 4.61987 89.999 4.40844C89.999 4.19701 89.9496 4.00775 89.8473 3.82531H89.8507ZM89.7177 4.91655C89.6324 5.07171 89.5148 5.19448 89.3647 5.28655C89.2164 5.37692 89.0561 5.42295 88.8856 5.42295C88.7151 5.42295 88.5548 5.37692 88.4031 5.28655C88.2513 5.19618 88.1337 5.07342 88.0484 4.91655C87.9632 4.76139 87.9188 4.59259 87.9188 4.41185C87.9188 4.23112 87.9615 4.06231 88.0484 3.90374C88.1337 3.74688 88.253 3.62241 88.4031 3.53204C88.5531 3.44167 88.7151 3.39564 88.8856 3.39564C89.0561 3.39564 89.2164 3.43997 89.3647 3.53204C89.5131 3.62241 89.6307 3.74688 89.7177 3.90374C89.8046 4.06061 89.8473 4.22941 89.8473 4.40844C89.8473 4.58747 89.8046 4.75968 89.7194 4.91485L89.7177 4.91655Z" fill="white"/>
<path d="M89.3967 4.86018V4.70843C89.3967 4.61295 89.3864 4.54474 89.3677 4.50553C89.3472 4.46631 89.308 4.43221 89.25 4.40152C89.3131 4.35719 89.354 4.31797 89.3745 4.28046C89.3984 4.23101 89.412 4.17134 89.412 4.10313C89.412 4.0247 89.395 3.95309 89.3609 3.89341C89.3268 3.83373 89.2807 3.79111 89.2262 3.76383C89.1716 3.73825 89.0812 3.72461 88.9551 3.72461H88.418V5.07331H88.6209V4.51064H88.9431C89.0233 4.51064 89.0778 4.51576 89.1051 4.52769C89.1324 4.53963 89.1529 4.55668 89.1665 4.58226C89.1818 4.60783 89.1904 4.65046 89.1938 4.71014L89.204 4.87553C89.2091 4.95225 89.2193 5.01875 89.2347 5.07331H89.4632L89.441 5.03751C89.4103 4.98977 89.395 4.93009 89.395 4.85848L89.3967 4.86018ZM89.1324 4.28557C89.0983 4.30774 89.0335 4.31968 88.938 4.31968H88.6226V3.92069H88.9517C89.0523 3.92069 89.1188 3.93604 89.1546 3.96843C89.1904 4.00083 89.2091 4.05028 89.2091 4.11848C89.2091 4.19691 89.1835 4.25147 89.1324 4.28557Z" fill="white"/>
<path d="M21.5031 18.9338L21.365 19.077C21.2507 18.9662 21.1382 18.9099 21.0291 18.9099C20.9592 18.9099 20.8995 18.9338 20.85 18.9781C20.8006 19.0242 20.775 19.0787 20.775 19.1384C20.775 19.193 20.7955 19.2441 20.8364 19.2936C20.8773 19.343 20.9643 19.4027 21.0956 19.4692C21.2558 19.5527 21.3633 19.6312 21.4212 19.7079C21.4775 19.7863 21.5048 19.8733 21.5048 19.9705C21.5048 20.1069 21.457 20.2245 21.3598 20.3183C21.2627 20.4138 21.1433 20.4615 20.9984 20.4615C20.9029 20.4615 20.8091 20.4411 20.7222 20.3985C20.6352 20.3558 20.5619 20.2996 20.5039 20.2245L20.6386 20.0711C20.7477 20.1956 20.8654 20.2569 20.9881 20.2569C21.0751 20.2569 21.1484 20.2297 21.2081 20.1734C21.2678 20.1188 21.2985 20.054 21.2985 19.979C21.2985 19.9176 21.278 19.8631 21.2388 19.8153C21.1996 19.7676 21.1092 19.7096 20.9677 19.638C20.8176 19.5596 20.7153 19.4828 20.6608 19.4078C20.6062 19.3328 20.5789 19.2458 20.5789 19.1486C20.5789 19.0225 20.6216 18.9168 20.7085 18.8332C20.7955 18.7497 20.9046 18.707 21.0359 18.707C21.1893 18.707 21.3445 18.7821 21.4997 18.9321L21.5031 18.9338Z" fill="#1C316A"/>
<path d="M21.8867 18.7511H22.1016V19.058C22.1868 18.9421 22.284 18.8534 22.3948 18.7955C22.5057 18.7375 22.6284 18.7085 22.7648 18.7085C23.0018 18.7085 23.2047 18.7937 23.3735 18.9643C23.5423 19.1348 23.6259 19.3411 23.6259 19.5815C23.6259 19.8219 23.5423 20.035 23.3752 20.2072C23.2081 20.3778 23.0069 20.4647 22.7699 20.4647C22.6369 20.4647 22.5142 20.4374 22.4034 20.3812C22.2925 20.3266 22.1919 20.2431 22.1016 20.1339V21.0308H21.8867V18.7511ZM22.7461 18.9148C22.5602 18.9148 22.4051 18.9796 22.2772 19.1092C22.151 19.2388 22.0862 19.4008 22.0862 19.5934C22.0862 19.7196 22.1152 19.8338 22.1715 19.9344C22.2277 20.035 22.3096 20.1152 22.4153 20.1749C22.521 20.2345 22.6318 20.2635 22.7495 20.2635C22.8671 20.2635 22.9728 20.2345 23.0751 20.1731C23.1775 20.1135 23.2576 20.0299 23.3173 19.9225C23.3769 19.8151 23.4076 19.7025 23.4076 19.5849C23.4076 19.4672 23.3769 19.3547 23.3173 19.2473C23.2576 19.1416 23.1775 19.058 23.0769 19.0001C22.9763 18.9421 22.8654 18.9114 22.7461 18.9114V18.9148Z" fill="#1C316A"/>
<path d="M25.4319 19.8665L25.6126 19.962C25.5529 20.0779 25.4847 20.1734 25.4063 20.245C25.3279 20.3166 25.2409 20.3712 25.1437 20.4087C25.0465 20.4462 24.9357 20.465 24.8129 20.465C24.5401 20.465 24.327 20.3763 24.1735 20.1973C24.0201 20.0182 23.9434 19.817 23.9434 19.592C23.9434 19.3805 24.0082 19.1913 24.1377 19.0259C24.3031 18.8145 24.5231 18.7104 24.7993 18.7104C25.0755 18.7104 25.3108 18.8179 25.4813 19.0344C25.6024 19.1862 25.6638 19.3771 25.6655 19.6056H24.1633C24.1667 19.8 24.2298 19.9586 24.3492 20.083C24.4685 20.2075 24.6169 20.2689 24.7925 20.2689C24.8777 20.2689 24.9596 20.2535 25.0397 20.2245C25.1199 20.1956 25.1881 20.1563 25.2443 20.1069C25.3006 20.0574 25.362 19.979 25.4268 19.8699L25.4319 19.8665ZM25.4319 19.4163C25.4029 19.3021 25.362 19.21 25.3074 19.1418C25.2528 19.0736 25.1795 19.0174 25.0909 18.9764C25.0005 18.9338 24.9067 18.9134 24.8061 18.9134C24.6424 18.9134 24.5009 18.9662 24.3833 19.0719C24.298 19.1487 24.2332 19.2629 24.1889 19.4163H25.4336H25.4319Z" fill="#1C316A"/>
<path d="M27.688 19.0975L27.5175 19.2032C27.3708 19.0071 27.1696 18.9099 26.9156 18.9099C26.7127 18.9099 26.5439 18.9747 26.4092 19.106C26.2745 19.2373 26.208 19.3959 26.208 19.5834C26.208 19.7045 26.2387 19.8187 26.3001 19.9261C26.3614 20.0336 26.4467 20.1171 26.5541 20.1751C26.6615 20.2348 26.7826 20.2638 26.9156 20.2638C27.1611 20.2638 27.3606 20.1666 27.5158 19.9705L27.6863 20.083C27.6061 20.2024 27.4987 20.2961 27.364 20.3626C27.2293 20.4291 27.0759 20.4615 26.9036 20.4615C26.6394 20.4615 26.4211 20.378 26.2472 20.2092C26.0733 20.0421 25.9863 19.8375 25.9863 19.5971C25.9863 19.4351 26.0272 19.285 26.1074 19.1469C26.1892 19.0088 26.3001 18.8997 26.4433 18.823C26.5848 18.7445 26.7451 18.707 26.9207 18.707C27.0315 18.707 27.1372 18.7241 27.2413 18.7582C27.3436 18.7923 27.4305 18.8366 27.5021 18.8895C27.5737 18.944 27.6351 19.0122 27.6846 19.0975H27.688Z" fill="#1C316A"/>
<path d="M28.1756 18.0645C28.2251 18.0645 28.266 18.0815 28.3001 18.1173C28.3342 18.1514 28.3529 18.194 28.3529 18.2435C28.3529 18.2929 28.3359 18.3321 28.3001 18.368C28.266 18.4021 28.2234 18.4208 28.1756 18.4208C28.1279 18.4208 28.087 18.4038 28.0512 18.368C28.0171 18.3339 28 18.2912 28 18.2435C28 18.1957 28.0171 18.1531 28.0512 18.1173C28.0853 18.0832 28.1262 18.0645 28.1756 18.0645ZM28.0682 18.7516H28.283V20.4208H28.0682V18.7516Z" fill="#1C316A"/>
<path d="M30.3937 18.7511V20.4204H30.1823V20.1339C30.0919 20.2431 29.9913 20.3249 29.8788 20.3812C29.7662 20.4357 29.6452 20.4647 29.5122 20.4647C29.2769 20.4647 29.074 20.3795 28.9069 20.2072C28.7398 20.0367 28.6562 19.827 28.6562 19.5815C28.6562 19.336 28.7398 19.1365 28.9086 18.9643C29.0774 18.7937 29.2803 18.7085 29.5173 18.7085C29.6537 18.7085 29.7782 18.7375 29.889 18.7955C29.9998 18.8534 30.097 18.9404 30.1806 19.058V18.7511H30.392H30.3937ZM29.5344 18.9148C29.415 18.9148 29.3042 18.9438 29.2036 19.0035C29.103 19.0614 29.0228 19.145 28.9615 19.2507C28.9018 19.3564 28.8711 19.469 28.8711 19.5883C28.8711 19.7077 28.9018 19.8185 28.9615 19.9259C29.0211 20.0333 29.103 20.1169 29.2053 20.1766C29.3076 20.2362 29.4167 20.2669 29.5327 20.2669C29.6486 20.2669 29.7611 20.2379 29.8668 20.1783C29.9726 20.1186 30.0527 20.0384 30.1107 19.9378C30.1669 19.8372 30.1959 19.723 30.1959 19.5968C30.1959 19.4042 30.1328 19.2422 30.005 19.1126C29.8771 18.983 29.7219 18.9182 29.5361 18.9182L29.5344 18.9148Z" fill="#1C316A"/>
<path d="M30.8438 18.1069H31.0586V20.4207H30.8438V18.1069Z" fill="#1C316A"/>
<path d="M32.3789 18.7511H32.5937V19.058C32.679 18.9421 32.7762 18.8534 32.887 18.7955C32.9978 18.7375 33.1206 18.7085 33.257 18.7085C33.494 18.7085 33.6969 18.7937 33.8657 18.9643C34.0345 19.1348 34.1181 19.3411 34.1181 19.5815C34.1181 19.8219 34.0345 20.035 33.8674 20.2072C33.7003 20.3778 33.4991 20.4647 33.2621 20.4647C33.1291 20.4647 33.0064 20.4374 32.8955 20.3812C32.7847 20.3266 32.6841 20.2431 32.5937 20.1339V21.0308H32.3789V18.7511ZM33.2383 18.9148C33.0524 18.9148 32.8955 18.9796 32.7694 19.1092C32.6432 19.2388 32.5784 19.4008 32.5784 19.5934C32.5784 19.7196 32.6074 19.8338 32.6637 19.9344C32.7199 20.035 32.8018 20.1152 32.9075 20.1749C33.0132 20.2345 33.124 20.2635 33.2417 20.2635C33.3593 20.2635 33.465 20.2345 33.5673 20.1731C33.6696 20.1135 33.7498 20.0299 33.8095 19.9225C33.8691 19.8151 33.8998 19.7025 33.8998 19.5849C33.8998 19.4672 33.8691 19.3547 33.8095 19.2473C33.7498 19.1416 33.6696 19.058 33.569 19.0001C33.4684 18.9421 33.3576 18.9114 33.2383 18.9114V18.9148Z" fill="#1C316A"/>
<path d="M34.4375 18.7511H34.6575V18.9949C34.7239 18.8995 34.7922 18.8261 34.8655 18.7801C34.9388 18.7324 35.0138 18.7085 35.0922 18.7085C35.1519 18.7085 35.215 18.7273 35.2832 18.7648L35.1707 18.9455C35.1263 18.9267 35.0871 18.9165 35.0564 18.9165C34.9848 18.9165 34.9149 18.9455 34.8484 19.0052C34.7819 19.0649 34.7308 19.1552 34.6967 19.2797C34.6694 19.3752 34.6575 19.5678 34.6575 19.856V20.4204H34.4375V18.7511Z" fill="#1C316A"/>
<path d="M36.2521 18.7085C36.5096 18.7085 36.7227 18.8023 36.8915 18.9881C37.045 19.1586 37.1217 19.3581 37.1217 19.5917C37.1217 19.8253 37.0399 20.0282 36.8779 20.2021C36.7159 20.376 36.5062 20.463 36.2521 20.463C35.9981 20.463 35.7867 20.376 35.6247 20.2021C35.4627 20.0282 35.3809 19.8236 35.3809 19.5917C35.3809 19.3598 35.4576 19.1603 35.611 18.9898C35.7798 18.8023 35.993 18.7085 36.2521 18.7085ZM36.2521 18.9182C36.0731 18.9182 35.9197 18.9847 35.7918 19.116C35.6639 19.2473 35.5991 19.4076 35.5991 19.5951C35.5991 19.7162 35.6281 19.8287 35.6878 19.9327C35.7457 20.0367 35.8259 20.1169 35.9248 20.1749C36.0237 20.2311 36.1328 20.2601 36.2521 20.2601C36.3715 20.2601 36.4806 20.2311 36.5795 20.1749C36.6784 20.1186 36.7585 20.0367 36.8165 19.9327C36.8745 19.8287 36.9035 19.7162 36.9035 19.5951C36.9035 19.4076 36.8387 19.249 36.7108 19.116C36.5812 18.9847 36.4278 18.9182 36.2504 18.9182H36.2521Z" fill="#1C316A"/>
<path d="M38.2086 18.1071V18.3168C38.1302 18.2827 38.062 18.2657 38.0057 18.2657C37.9631 18.2657 37.929 18.2742 37.9017 18.2912C37.8744 18.3083 37.8573 18.327 37.8488 18.3492C37.842 18.3714 37.8386 18.4293 37.8386 18.5248V18.7499H38.1864V18.9357H37.8369V20.4191H37.6203V18.9357H37.4004V18.7499H37.6203V18.489C37.6203 18.3697 37.6306 18.2844 37.6527 18.2333C37.6749 18.1821 37.7124 18.1412 37.7653 18.1105C37.8181 18.0798 37.8812 18.0645 37.9562 18.0645C38.0261 18.0645 38.1097 18.0781 38.2069 18.1071H38.2086Z" fill="#1C316A"/>
<path d="M39.9123 19.8665L40.0931 19.962C40.0334 20.0779 39.9652 20.1734 39.8868 20.245C39.8083 20.3166 39.7214 20.3712 39.6242 20.4087C39.527 20.4462 39.4162 20.465 39.2934 20.465C39.0206 20.465 38.8075 20.3763 38.654 20.1973C38.5006 20.0182 38.4238 19.817 38.4238 19.592C38.4238 19.3805 38.4886 19.1913 38.6182 19.0259C38.7836 18.8145 39.0035 18.7104 39.2798 18.7104C39.556 18.7104 39.7913 18.8179 39.9618 19.0344C40.0829 19.1862 40.1442 19.3771 40.1459 19.6056H38.6438C38.6472 19.8 38.7103 19.9586 38.8296 20.083C38.949 20.2075 39.0973 20.2689 39.2729 20.2689C39.3582 20.2689 39.44 20.2535 39.5202 20.2245C39.6003 20.1956 39.6685 20.1563 39.7248 20.1069C39.7811 20.0574 39.8424 19.979 39.9072 19.8699L39.9123 19.8665ZM39.9123 19.4163C39.8834 19.3021 39.8424 19.21 39.7879 19.1418C39.7333 19.0736 39.66 19.0174 39.5713 18.9764C39.481 18.9338 39.3872 18.9134 39.2866 18.9134C39.1229 18.9134 38.9814 18.9662 38.8637 19.0719C38.7785 19.1487 38.7137 19.2629 38.6694 19.4163H39.9141H39.9123Z" fill="#1C316A"/>
<path d="M41.3878 18.9338L41.2497 19.077C41.1355 18.9662 41.023 18.9099 40.9138 18.9099C40.8439 18.9099 40.7842 18.9338 40.7348 18.9781C40.6854 19.0242 40.6598 19.0787 40.6598 19.1384C40.6598 19.193 40.6802 19.2441 40.7212 19.2936C40.7621 19.343 40.849 19.4027 40.9803 19.4692C41.1406 19.5527 41.248 19.6312 41.306 19.7079C41.3623 19.7863 41.3895 19.8733 41.3895 19.9705C41.3895 20.1069 41.3418 20.2245 41.2446 20.3183C41.1474 20.4138 41.0281 20.4615 40.8831 20.4615C40.7877 20.4615 40.6939 20.4411 40.6069 20.3985C40.52 20.3558 40.4466 20.2996 40.3887 20.2245L40.5234 20.0711C40.6325 20.1956 40.7501 20.2569 40.8729 20.2569C40.9599 20.2569 41.0332 20.2297 41.0929 20.1734C41.1525 20.1188 41.1832 20.054 41.1832 19.979C41.1832 19.9176 41.1628 19.8631 41.1236 19.8153C41.0843 19.7676 40.994 19.7096 40.8524 19.638C40.7024 19.5596 40.6001 19.4828 40.5455 19.4078C40.491 19.3328 40.4637 19.2458 40.4637 19.1486C40.4637 19.0225 40.5063 18.9168 40.5933 18.8332C40.6802 18.7497 40.7894 18.707 40.9207 18.707C41.0741 18.707 41.2293 18.7821 41.3844 18.9321L41.3878 18.9338Z" fill="#1C316A"/>
<path d="M42.6085 18.9338L42.4704 19.077C42.3562 18.9662 42.2437 18.9099 42.1345 18.9099C42.0646 18.9099 42.0049 18.9338 41.9555 18.9781C41.9061 19.0242 41.8805 19.0787 41.8805 19.1384C41.8805 19.193 41.9009 19.2441 41.9419 19.2936C41.9828 19.343 42.0697 19.4027 42.201 19.4692C42.3613 19.5527 42.4687 19.6312 42.5267 19.7079C42.583 19.7863 42.6102 19.8733 42.6102 19.9705C42.6102 20.1069 42.5625 20.2245 42.4653 20.3183C42.3681 20.4138 42.2488 20.4615 42.1038 20.4615C42.0084 20.4615 41.9146 20.4411 41.8276 20.3985C41.7407 20.3558 41.6673 20.2996 41.6094 20.2245L41.7441 20.0711C41.8549 20.1956 41.9708 20.2569 42.0936 20.2569C42.1806 20.2569 42.2539 20.2297 42.3136 20.1734C42.3732 20.1188 42.4039 20.054 42.4039 19.979C42.4039 19.9176 42.3835 19.8631 42.3443 19.8153C42.305 19.7676 42.2147 19.7096 42.0732 19.638C41.9231 19.5596 41.8208 19.4828 41.7662 19.4078C41.7117 19.3328 41.6844 19.2458 41.6844 19.1486C41.6844 19.0225 41.727 18.9168 41.814 18.8332C41.9009 18.7497 42.0101 18.707 42.1414 18.707C42.2948 18.707 42.45 18.7821 42.6051 18.9321L42.6085 18.9338Z" fill="#1C316A"/>
<path d="M43.0623 18.0645C43.1118 18.0645 43.1527 18.0815 43.1868 18.1173C43.2209 18.1514 43.2397 18.194 43.2397 18.2435C43.2397 18.2929 43.2226 18.3321 43.1868 18.368C43.1527 18.4021 43.1101 18.4208 43.0623 18.4208C43.0146 18.4208 42.9737 18.4038 42.9379 18.368C42.9038 18.3339 42.8867 18.2912 42.8867 18.2435C42.8867 18.1957 42.9038 18.1531 42.9379 18.1173C42.972 18.0832 43.0129 18.0645 43.0623 18.0645ZM42.9549 18.7516H43.1698V20.4208H42.9549V18.7516Z" fill="#1C316A"/>
<path d="M44.4064 18.7085C44.6639 18.7085 44.877 18.8023 45.0458 18.9881C45.1993 19.1586 45.276 19.3581 45.276 19.5917C45.276 19.8253 45.1942 20.0282 45.0322 20.2021C44.8702 20.376 44.6605 20.463 44.4064 20.463C44.1524 20.463 43.941 20.376 43.779 20.2021C43.617 20.0282 43.5352 19.8236 43.5352 19.5917C43.5352 19.3598 43.6119 19.1603 43.7653 18.9898C43.9341 18.8023 44.1473 18.7085 44.4064 18.7085ZM44.4064 18.9182C44.2274 18.9182 44.074 18.9847 43.9461 19.116C43.8182 19.2473 43.7534 19.4076 43.7534 19.5951C43.7534 19.7162 43.7824 19.8287 43.8421 19.9327C43.9 20.0367 43.9785 20.1169 44.0791 20.1749C44.178 20.2311 44.2871 20.2601 44.4064 20.2601C44.5258 20.2601 44.6349 20.2311 44.7338 20.1749C44.8327 20.1186 44.9128 20.0367 44.9708 19.9327C45.0288 19.8287 45.0578 19.7162 45.0578 19.5951C45.0578 19.4076 44.993 19.249 44.8651 19.116C44.7355 18.9847 44.5821 18.9182 44.4064 18.9182Z" fill="#1C316A"/>
<path d="M45.6758 18.7514H45.8906V19.0497C45.9759 18.9355 46.0714 18.8503 46.1754 18.7923C46.2794 18.736 46.3936 18.707 46.5164 18.707C46.6391 18.707 46.7517 18.7394 46.8489 18.8025C46.9461 18.8656 47.0177 18.9509 47.0637 19.0583C47.1097 19.1657 47.1319 19.3328 47.1319 19.5596V20.4189H46.9171V19.6226C46.9171 19.43 46.9085 19.3021 46.8932 19.2373C46.8693 19.1265 46.8216 19.0429 46.75 18.9884C46.6801 18.9321 46.588 18.9048 46.4737 18.9048C46.3442 18.9048 46.2282 18.9474 46.1242 19.0344C46.0219 19.1197 45.9537 19.2271 45.9213 19.3532C45.9008 19.4368 45.8906 19.5868 45.8906 19.8068V20.4189H45.6758V18.7497V18.7514Z" fill="#1C316A"/>
<path d="M49.255 18.7511V20.4204H49.0436V20.1339C48.9532 20.2431 48.8526 20.3249 48.7401 20.3812C48.6276 20.4357 48.5065 20.4647 48.3735 20.4647C48.1382 20.4647 47.9353 20.3795 47.7682 20.2072C47.6011 20.0367 47.5176 19.827 47.5176 19.5815C47.5176 19.336 47.6011 19.1365 47.7699 18.9643C47.9387 18.7937 48.1416 18.7085 48.3786 18.7085C48.515 18.7085 48.6395 18.7375 48.7503 18.7955C48.8612 18.8534 48.9584 18.9404 49.0419 19.058V18.7511H49.2533H49.255ZM48.3957 18.9148C48.2763 18.9148 48.1655 18.9438 48.0649 19.0035C47.9643 19.0614 47.8842 19.145 47.8228 19.2507C47.7631 19.3564 47.7324 19.469 47.7324 19.5883C47.7324 19.7077 47.7631 19.8185 47.8228 19.9259C47.8825 20.0333 47.9643 20.1169 48.0666 20.1766C48.1689 20.2362 48.278 20.2669 48.394 20.2669C48.5099 20.2669 48.6225 20.2379 48.7282 20.1783C48.8339 20.1186 48.914 20.0384 48.972 19.9378C49.0283 19.8372 49.0572 19.723 49.0572 19.5968C49.0572 19.4042 48.9942 19.2422 48.8663 19.1126C48.7384 18.983 48.5832 18.9182 48.3974 18.9182L48.3957 18.9148Z" fill="#1C316A"/>
<path d="M49.7051 18.1069H49.9199V20.4207H49.7051V18.1069Z" fill="#1C316A"/>
<path d="M52.0734 18.9338L51.9353 19.077C51.821 18.9662 51.7085 18.9099 51.5994 18.9099C51.5295 18.9099 51.4698 18.9338 51.4203 18.9781C51.3709 19.0242 51.3453 19.0787 51.3453 19.1384C51.3453 19.193 51.3658 19.2441 51.4067 19.2936C51.4476 19.343 51.5346 19.4027 51.6659 19.4692C51.8262 19.5527 51.9336 19.6312 51.9915 19.7079C52.0478 19.7863 52.0751 19.8733 52.0751 19.9705C52.0751 20.1069 52.0274 20.2245 51.9302 20.3183C51.833 20.4138 51.7136 20.4615 51.5687 20.4615C51.4732 20.4615 51.3794 20.4411 51.2925 20.3985C51.2055 20.3558 51.1322 20.2996 51.0742 20.2245L51.2089 20.0711C51.3197 20.1956 51.4357 20.2569 51.5585 20.2569C51.6454 20.2569 51.7187 20.2297 51.7784 20.1734C51.8381 20.1188 51.8688 20.054 51.8688 19.979C51.8688 19.9176 51.8483 19.8631 51.8091 19.8153C51.7699 19.7676 51.6795 19.7096 51.538 19.638C51.388 19.5596 51.2856 19.4828 51.2311 19.4078C51.1765 19.3328 51.1492 19.2458 51.1492 19.1486C51.1492 19.0225 51.1919 18.9168 51.2788 18.8332C51.3658 18.7497 51.4749 18.707 51.6062 18.707C51.7597 18.707 51.9148 18.7821 52.07 18.9321L52.0734 18.9338Z" fill="#1C316A"/>
<path d="M53.8616 19.8665L54.0423 19.962C53.9826 20.0779 53.9144 20.1734 53.836 20.245C53.7576 20.3166 53.6706 20.3712 53.5734 20.4087C53.4762 20.4462 53.3654 20.465 53.2426 20.465C52.9698 20.465 52.7567 20.3763 52.6032 20.1973C52.4498 20.0182 52.373 19.817 52.373 19.592C52.373 19.3805 52.4378 19.1913 52.5674 19.0259C52.7328 18.8145 52.9528 18.7104 53.229 18.7104C53.5052 18.7104 53.7405 18.8179 53.911 19.0344C54.0321 19.1862 54.0935 19.3771 54.0952 19.6056H52.593C52.5964 19.8 52.6595 19.9586 52.7789 20.083C52.8982 20.2075 53.0465 20.2689 53.2222 20.2689C53.3074 20.2689 53.3893 20.2535 53.4694 20.2245C53.5495 20.1956 53.6177 20.1563 53.674 20.1069C53.7303 20.0574 53.7917 19.979 53.8564 19.8699L53.8616 19.8665ZM53.8616 19.4163C53.8326 19.3021 53.7917 19.21 53.7371 19.1418C53.6825 19.0736 53.6092 19.0174 53.5206 18.9764C53.4302 18.9338 53.3364 18.9134 53.2358 18.9134C53.0721 18.9134 52.9306 18.9662 52.813 19.0719C52.7277 19.1487 52.6629 19.2629 52.6186 19.4163H53.8633H53.8616Z" fill="#1C316A"/>
<path d="M54.416 18.7511H54.636V18.9949C54.7025 18.8995 54.7707 18.8261 54.844 18.7801C54.9173 18.7324 54.9923 18.7085 55.0708 18.7085C55.1304 18.7085 55.1935 18.7273 55.2617 18.7648L55.1492 18.9455C55.1049 18.9267 55.0656 18.9165 55.0349 18.9165C54.9633 18.9165 54.8934 18.9455 54.8269 19.0052C54.7604 19.0649 54.7093 19.1552 54.6752 19.2797C54.6479 19.3752 54.636 19.5678 54.636 19.856V20.4204H54.416V18.7511Z" fill="#1C316A"/>
<path d="M55.5174 18.0645C55.5669 18.0645 55.6078 18.0815 55.6419 18.1173C55.676 18.1514 55.6947 18.194 55.6947 18.2435C55.6947 18.2929 55.6777 18.3321 55.6419 18.368C55.6078 18.4021 55.5652 18.4208 55.5174 18.4208C55.4697 18.4208 55.4288 18.4038 55.3929 18.368C55.3588 18.3339 55.3418 18.2912 55.3418 18.2435C55.3418 18.1957 55.3588 18.1531 55.3929 18.1173C55.427 18.0832 55.468 18.0645 55.5174 18.0645ZM55.41 18.7516H55.6248V20.4208H55.41V18.7516Z" fill="#1C316A"/>
<path d="M57.4768 19.8665L57.6575 19.962C57.5979 20.0779 57.5297 20.1734 57.4512 20.245C57.3728 20.3166 57.2858 20.3712 57.1886 20.4087C57.0915 20.4462 56.9806 20.465 56.8579 20.465C56.5851 20.465 56.3719 20.3763 56.2185 20.1973C56.065 20.0182 55.9883 19.817 55.9883 19.592C55.9883 19.3805 56.0531 19.1913 56.1827 19.0259C56.3481 18.8145 56.568 18.7104 56.8442 18.7104C57.1204 18.7104 57.3557 18.8179 57.5263 19.0344C57.6473 19.1862 57.7087 19.3771 57.7104 19.6056H56.2082C56.2116 19.8 56.2747 19.9586 56.3941 20.083C56.5134 20.2075 56.6618 20.2689 56.8374 20.2689C56.9227 20.2689 57.0045 20.2535 57.0846 20.2245C57.1648 20.1956 57.233 20.1563 57.2892 20.1069C57.3455 20.0574 57.4069 19.979 57.4717 19.8699L57.4768 19.8665ZM57.4768 19.4163C57.4478 19.3021 57.4069 19.21 57.3523 19.1418C57.2978 19.0736 57.2245 19.0174 57.1358 18.9764C57.0454 18.9338 56.9516 18.9134 56.851 18.9134C56.6874 18.9134 56.5458 18.9662 56.4282 19.0719C56.3429 19.1487 56.2781 19.2629 56.2338 19.4163H57.4785H57.4768Z" fill="#1C316A"/>
<path d="M58.9523 18.9338L58.8142 19.077C58.6999 18.9662 58.5874 18.9099 58.4783 18.9099C58.4084 18.9099 58.3487 18.9338 58.2993 18.9781C58.2498 19.0242 58.2242 19.0787 58.2242 19.1384C58.2242 19.193 58.2447 19.2441 58.2856 19.2936C58.3265 19.343 58.4135 19.4027 58.5448 19.4692C58.7051 19.5527 58.8125 19.6312 58.8704 19.7079C58.9267 19.7863 58.954 19.8733 58.954 19.9705C58.954 20.1069 58.9063 20.2245 58.8091 20.3183C58.7119 20.4138 58.5925 20.4615 58.4476 20.4615C58.3521 20.4615 58.2583 20.4411 58.1714 20.3985C58.0844 20.3558 58.0111 20.2996 57.9531 20.2245L58.0878 20.0711C58.1969 20.1956 58.3146 20.2569 58.4374 20.2569C58.5243 20.2569 58.5976 20.2297 58.6573 20.1734C58.717 20.1188 58.7477 20.054 58.7477 19.979C58.7477 19.9176 58.7272 19.8631 58.688 19.8153C58.6488 19.7676 58.5584 19.7096 58.4169 19.638C58.2669 19.5596 58.1645 19.4828 58.11 19.4078C58.0554 19.3328 58.0281 19.2458 58.0281 19.1486C58.0281 19.0225 58.0708 18.9168 58.1577 18.8332C58.2447 18.7497 58.3538 18.707 58.4851 18.707C58.6386 18.707 58.7937 18.7821 58.9489 18.9321L58.9523 18.9338Z" fill="#1C316A"/>
</svg>
