<svg width="258" height="69" viewBox="0 0 258 69" fill="none" xmlns="http://www.w3.org/2000/svg">
<path d="M166.377 62.2582H52.8865V49.7795H166.377C169.413 49.7795 171.871 52.2381 171.871 55.2735V56.7643C171.871 59.7996 169.413 62.2582 166.377 62.2582Z" fill="#FED600"/>
<path d="M14.8248 9.04688L0 41.8981H4.95627L9.62417 31.575H21.5896L26.3015 41.8981H31.1453L16.5111 9.04688H14.8248ZM19.6296 27.0684H11.6624L15.6558 18.236L19.6296 27.0684Z" fill="white"/>
<path d="M52.7085 20.121C51.858 19.2119 50.9244 18.4787 49.9176 17.9215C48.3388 17.0564 46.5547 16.6165 44.6191 16.6165C41.271 16.6165 38.3676 17.8922 35.997 20.4094C33.6313 22.9169 32.4337 25.9718 32.4337 29.491C32.4337 33.0103 33.6215 36.1727 35.9628 38.6851C38.3187 41.2121 41.2025 42.4927 44.5409 42.4927C46.4179 42.4927 48.1726 42.0772 49.7563 41.261C50.8071 40.7184 51.7945 39.995 52.7085 39.1005V62.2543H56.9903V17.2128H52.7085V20.121ZM50.553 23.4399C52.122 25.1164 52.8894 27.1546 52.8894 29.6719C52.8894 31.3044 52.5374 32.7854 51.8483 34.0758C51.164 35.3565 50.1668 36.3829 48.896 37.1356C46.3543 38.6313 43.3385 38.6509 40.875 37.1356C39.6433 36.378 38.6462 35.2978 37.913 33.9292C37.1749 32.5508 36.7986 31.0943 36.7986 29.5888C36.7986 28.0833 37.1701 26.6121 37.9032 25.2484C38.6315 23.8945 39.6189 22.8289 40.8408 22.086C42.0579 21.343 43.4118 20.9666 44.8537 20.9666C47.1315 20.9666 48.9937 21.7731 50.553 23.4399Z" fill="white"/>
<path d="M78.5048 28.7883C78.5048 32.2831 78.275 33.6859 78.0893 34.2431C77.6885 35.4064 76.9798 36.3205 75.9191 37.039C74.8633 37.7575 73.5436 38.1192 71.9991 38.1192C70.4545 38.1192 69.1103 37.7428 68.0155 37.0048C66.9206 36.2667 66.1972 35.294 65.8159 34.0378C65.5471 33.114 65.4102 31.3446 65.4102 28.7834V17.209H60.889V29.1207C60.889 32.5617 61.2849 35.0838 62.1012 36.8435C62.9223 38.6177 64.1883 40.0157 65.8599 41.0079C67.5169 41.9904 69.5893 42.484 72.0186 42.484C74.4479 42.484 76.5154 41.9855 78.1577 41.003C79.8098 40.0108 81.066 38.6275 81.8872 36.8777C82.7034 35.1425 83.0993 32.6741 83.0993 29.3308V17.2041H78.5097V28.7785L78.5048 28.7883Z" fill="white"/>
<path d="M107.058 20.1944C106.139 19.2461 105.127 18.4836 104.032 17.9166C102.375 17.0564 100.503 16.6165 98.4699 16.6165C94.9506 16.6165 91.9006 17.8873 89.398 20.3948C86.8954 22.9022 85.6295 25.962 85.6295 29.491C85.6295 33.0201 86.8857 36.1874 89.3638 38.6997C91.842 41.217 94.8773 42.4927 98.3868 42.4927C100.357 42.4927 102.204 42.0821 103.871 41.2659C105.01 40.7086 106.075 39.9608 107.063 39.0321V41.8964H111.506V17.2128H107.063V20.1944H107.058ZM104.79 23.4546C106.447 25.1311 107.253 27.1644 107.253 29.6719C107.253 31.2947 106.887 32.7757 106.158 34.0612C105.43 35.3418 104.379 36.3731 103.03 37.1259C100.327 38.6362 97.1013 38.6509 94.4765 37.1259C93.1714 36.3633 92.1157 35.2831 91.3385 33.9145C90.5613 32.5459 90.1654 31.0894 90.1654 29.5888C90.1654 28.0882 90.5565 26.6219 91.3287 25.2679C92.0961 23.914 93.147 22.8485 94.4423 22.1006C95.7425 21.3528 97.1844 20.9715 98.724 20.9715C101.148 20.9715 103.138 21.7829 104.795 23.4594L104.79 23.4546Z" fill="white"/>
<path d="M133.228 10.2248C131.102 9.43301 127.822 9.04688 123.213 9.04688H116.262V41.8981H126.537C130.378 41.8981 133.428 41.292 135.603 40.0994C137.793 38.8969 139.592 37.02 140.951 34.5174C142.3 32.0295 142.984 29.1213 142.984 25.8659C142.984 22.1023 142.119 18.8079 140.418 16.0707C138.697 13.3091 136.283 11.3393 133.233 10.2248H133.228ZM138.473 25.9246C138.473 28.652 137.862 30.9786 136.654 32.8458C135.462 34.6885 133.8 35.9838 131.718 36.6925C130.202 37.2058 127.377 37.4648 123.335 37.4648H120.608V13.5975H121.991C126.199 13.5975 129.244 13.8858 131.038 14.4577C133.36 15.1958 135.193 16.579 136.493 18.5684C137.808 20.5822 138.473 23.0603 138.473 25.9246Z" fill="white"/>
<path d="M158.078 16.6165C154.26 16.6165 151.054 18.0095 148.551 20.7613C146.279 23.2493 145.125 26.2308 145.125 29.6181C145.125 33.0054 146.342 36.0701 148.737 38.6215C151.147 41.1877 154.29 42.4927 158.073 42.4927C161.856 42.4927 164.975 41.1925 167.384 38.6215C169.784 36.0701 171.001 33.0396 171.001 29.6181C171.001 26.1966 169.848 23.2297 167.575 20.7369C165.072 17.9997 161.876 16.6165 158.073 16.6165H158.078ZM166.651 29.6817C166.651 31.2213 166.265 32.6779 165.498 34.0074C164.735 35.332 163.689 36.3731 162.394 37.0916C161.089 37.815 159.632 38.1816 158.068 38.1816C156.504 38.1816 155.047 37.815 153.742 37.0916C152.447 36.3731 151.401 35.3369 150.638 34.0074C149.871 32.6779 149.485 31.2213 149.485 29.6817C149.485 27.2573 150.311 25.2533 152.017 23.5474C153.723 21.8416 155.702 21.0106 158.068 21.0106C160.434 21.0106 162.399 21.8416 164.109 23.5474C165.82 25.2533 166.651 27.2622 166.651 29.6817Z" fill="white"/>
<path d="M193.573 34.4942C191.642 37.0408 189.223 38.2774 186.183 38.2774C184.545 38.2774 183.05 37.8962 181.735 37.1385C180.43 36.3858 179.384 35.3105 178.636 33.9468C177.878 32.5733 177.497 31.0874 177.497 29.5282C177.497 27.1087 178.303 25.1096 179.96 23.4184C181.617 21.7321 183.646 20.9109 186.163 20.9109C189.321 20.9109 191.74 22.1426 193.563 24.6794L193.974 25.2513L197.405 23.0176L197.058 22.4164C196.349 21.1748 195.47 20.1337 194.453 19.3272C193.441 18.5256 192.2 17.8658 190.763 17.3721C189.33 16.8784 187.82 16.6292 186.276 16.6292C183.822 16.6292 181.564 17.2059 179.574 18.3448C177.575 19.4885 175.987 21.1015 174.843 23.1349C173.704 25.1633 173.127 27.3922 173.127 29.753C173.127 33.282 174.364 36.3174 176.803 38.7809C179.247 41.2443 182.356 42.4956 186.046 42.4956C188.436 42.4956 190.601 42.002 192.483 41.0342C194.38 40.0566 195.914 38.6587 197.039 36.8893L197.42 36.2881L193.993 33.9321L193.568 34.4942H193.573Z" fill="white"/>
<path d="M207.976 8.59937H203.65V17.2166H199.76V21.2687H203.65V41.9002H207.976V21.2687H212.502V17.2166H207.976V8.59937Z" fill="white"/>
<path d="M226.537 16.6165C222.719 16.6165 219.513 18.0095 217.01 20.7613C214.738 23.2493 213.589 26.2308 213.589 29.6181C213.589 33.0054 214.806 36.0701 217.201 38.6215C219.611 41.1877 222.754 42.4927 226.537 42.4927C230.32 42.4927 233.443 41.1925 235.848 38.6215C238.248 36.0701 239.465 33.0396 239.465 29.6181C239.465 26.1966 238.312 23.2297 236.039 20.7369C233.536 17.9997 230.34 16.6165 226.537 16.6165ZM235.115 29.6817C235.115 31.2164 234.724 32.673 233.961 34.0074C233.194 35.332 232.153 36.3731 230.858 37.0916C229.553 37.815 228.096 38.1816 226.532 38.1816C224.968 38.1816 223.511 37.815 222.206 37.0916C220.911 36.3731 219.865 35.3369 219.102 34.0074C218.335 32.673 217.949 31.2213 217.949 29.6817C217.949 27.2622 218.78 25.2533 220.481 23.5474C222.187 21.8416 224.166 21.0106 226.532 21.0106C228.898 21.0106 230.863 21.8416 232.573 23.5474C234.284 25.2533 235.115 27.2622 235.115 29.6817Z" fill="white"/>
<path d="M250.97 16.6165C249.777 16.6165 248.619 16.9928 247.539 17.7358C246.991 18.1121 246.459 18.5863 245.94 19.1581V17.2128H241.551V41.8915H245.94V33.3036C245.94 29.364 246.112 26.7294 246.444 25.4732C246.869 23.8993 247.475 22.736 248.248 22.0175C248.995 21.3234 249.733 20.9862 250.501 20.9862C250.706 20.9862 251.082 21.0448 251.708 21.3283L252.309 21.6021L254.509 17.8775L253.869 17.506C252.857 16.9146 251.884 16.6165 250.97 16.6165Z" fill="white"/>
<path d="M257.574 10.9629C257.285 10.4399 256.894 10.0293 256.401 9.73118C255.907 9.43302 255.374 9.28149 254.802 9.28149C254.231 9.28149 253.698 9.43302 253.199 9.73118C252.701 10.0293 252.31 10.4399 252.021 10.9678C251.733 11.4908 251.591 12.0529 251.591 12.6541C251.591 13.2553 251.733 13.8028 252.021 14.3209C252.31 14.839 252.701 15.2496 253.199 15.5477C253.698 15.8508 254.231 15.9974 254.798 15.9974C255.365 15.9974 255.897 15.8459 256.396 15.5428C256.894 15.2398 257.285 14.8292 257.569 14.316C257.857 13.7979 257.999 13.2406 257.999 12.6346C257.999 12.0285 257.857 11.4859 257.564 10.9629H257.574ZM257.193 14.0911C256.948 14.5359 256.611 14.8879 256.181 15.1518C255.756 15.4109 255.296 15.5428 254.807 15.5428C254.319 15.5428 253.859 15.4109 253.424 15.1518C252.989 14.8927 252.652 14.5408 252.407 14.0911C252.163 13.6463 252.036 13.1624 252.036 12.6443C252.036 12.1262 252.158 11.6423 252.407 11.1878C252.652 10.7381 252.994 10.3813 253.424 10.1222C253.854 9.86315 254.319 9.73118 254.807 9.73118C255.296 9.73118 255.756 9.85826 256.181 10.1222C256.606 10.3813 256.943 10.7381 257.193 11.1878C257.442 11.6374 257.564 12.1213 257.564 12.6346C257.564 13.1478 257.442 13.6415 257.197 14.0862L257.193 14.0911Z" fill="white"/>
<path d="M256.27 13.9323V13.4973C256.27 13.2236 256.241 13.0281 256.187 12.9156C256.129 12.8032 256.016 12.7055 255.85 12.6175C256.031 12.4904 256.148 12.378 256.207 12.2704C256.275 12.1287 256.314 11.9576 256.314 11.7621C256.314 11.5373 256.266 11.332 256.168 11.1609C256.07 10.9898 255.938 10.8676 255.782 10.7894C255.625 10.7161 255.366 10.677 255.005 10.677H253.465V14.5433H254.046V12.9303H254.97C255.2 12.9303 255.356 12.945 255.435 12.9792C255.513 13.0134 255.572 13.0623 255.611 13.1356C255.655 13.2089 255.679 13.3311 255.689 13.5022L255.718 13.9763C255.733 14.1962 255.762 14.3869 255.806 14.5433H256.461L256.398 14.4406C256.31 14.3038 256.266 14.1327 256.266 13.9274L256.27 13.9323ZM255.513 12.2851C255.415 12.3486 255.229 12.3829 254.956 12.3829H254.051V11.2391H254.995C255.283 11.2391 255.474 11.2831 255.576 11.376C255.679 11.4688 255.733 11.6106 255.733 11.8061C255.733 12.0309 255.659 12.1873 255.513 12.2851Z" fill="white"/>
<path d="M61.643 54.2753L61.2471 54.6859C60.9196 54.3682 60.597 54.2069 60.2842 54.2069C60.0838 54.2069 59.9127 54.2753 59.771 54.4024C59.6292 54.5344 59.5559 54.6908 59.5559 54.8619C59.5559 55.0183 59.6146 55.1649 59.7319 55.3067C59.8492 55.4484 60.0985 55.6195 60.4748 55.8101C60.9343 56.0496 61.2422 56.2745 61.4084 56.4944C61.5697 56.7192 61.6479 56.9685 61.6479 57.2471C61.6479 57.6382 61.5111 57.9754 61.2324 58.2443C60.9538 58.518 60.6117 58.6548 60.1962 58.6548C59.9225 58.6548 59.6537 58.5962 59.4044 58.474C59.1551 58.3518 58.9449 58.1905 58.7787 57.9754L59.1649 57.5355C59.4777 57.8923 59.815 58.0683 60.1669 58.0683C60.4162 58.0683 60.6264 57.9901 60.7974 57.8288C60.9685 57.6724 61.0565 57.4866 61.0565 57.2716C61.0565 57.0956 60.9978 56.9392 60.8854 56.8023C60.773 56.6655 60.5139 56.4993 60.1082 56.294C59.6781 56.0692 59.3848 55.8492 59.2284 55.6341C59.072 55.4191 58.9938 55.1698 58.9938 54.8912C58.9938 54.5295 59.116 54.2264 59.3653 53.9869C59.6146 53.7474 59.9274 53.6252 60.3038 53.6252C60.7437 53.6252 61.1885 53.8403 61.6332 54.2704L61.643 54.2753Z" fill="#1C316A"/>
<path d="M62.7445 53.7531H63.3604V54.6329C63.6048 54.3005 63.8834 54.0463 64.2011 53.8801C64.5188 53.714 64.8707 53.6309 65.2617 53.6309C65.9412 53.6309 66.5228 53.8753 67.0067 54.364C67.4906 54.8528 67.7301 55.4443 67.7301 56.1334C67.7301 56.8226 67.4906 57.4336 67.0116 57.9273C66.5326 58.4161 65.9558 58.6653 65.2764 58.6653C64.8952 58.6653 64.5432 58.5871 64.2255 58.4258C63.9078 58.2694 63.6194 58.0299 63.3604 57.7171V60.2881H62.7445V53.7531ZM65.208 54.2223C64.6752 54.2223 64.2304 54.408 63.8638 54.7795C63.5021 55.151 63.3164 55.6153 63.3164 56.1677C63.3164 56.5294 63.3995 56.8568 63.5608 57.1452C63.7221 57.4336 63.9567 57.6633 64.2597 57.8344C64.5628 58.0055 64.8805 58.0886 65.2178 58.0886C65.555 58.0886 65.8581 58.0055 66.1513 57.8295C66.4446 57.6584 66.6743 57.4189 66.8454 57.111C67.0165 56.8031 67.1045 56.4805 67.1045 56.1432C67.1045 55.806 67.0165 55.4834 66.8454 55.1754C66.6743 54.8724 66.4446 54.6329 66.1562 54.4667C65.8678 54.3005 65.5501 54.2125 65.208 54.2125V54.2223Z" fill="#1C316A"/>
<path d="M72.9057 56.9502L73.4238 57.2239C73.2527 57.5563 73.0572 57.83 72.8324 58.0353C72.6075 58.2406 72.3582 58.397 72.0796 58.5045C71.801 58.6121 71.4833 58.6658 71.1314 58.6658C70.3493 58.6658 69.7383 58.4117 69.2984 57.8984C68.8585 57.3852 68.6386 56.8084 68.6386 56.1632C68.6386 55.5572 68.8243 55.0146 69.1958 54.5405C69.6699 53.9344 70.3004 53.6362 71.0923 53.6362C71.8841 53.6362 72.5586 53.9442 73.0474 54.5649C73.3945 54.9999 73.5704 55.5474 73.5753 56.2023H69.2691C69.2789 56.7596 69.4597 57.2141 69.8019 57.5709C70.144 57.9278 70.5693 58.1037 71.0727 58.1037C71.3171 58.1037 71.5517 58.0597 71.7815 57.9766C72.0112 57.8935 72.2067 57.7811 72.368 57.6394C72.5293 57.4976 72.7053 57.2728 72.891 56.96L72.9057 56.9502ZM72.9057 55.6598C72.8226 55.3323 72.7053 55.0684 72.5489 54.8729C72.3924 54.6773 72.1823 54.516 71.9281 54.3987C71.669 54.2765 71.4002 54.2179 71.1118 54.2179C70.6426 54.2179 70.2369 54.3694 69.8996 54.6725C69.6553 54.8924 69.4695 55.2199 69.3424 55.6598H72.9106H72.9057Z" fill="#1C316A"/>
<path d="M79.3725 54.7446L78.8837 55.0476C78.4634 54.4855 77.8866 54.2069 77.1583 54.2069C76.5767 54.2069 76.0928 54.3926 75.7066 54.769C75.3205 55.1454 75.1299 55.5999 75.1299 56.1376C75.1299 56.4846 75.2178 56.8121 75.3938 57.1201C75.5698 57.428 75.8142 57.6675 76.1221 57.8337C76.43 58.0048 76.7771 58.0878 77.1583 58.0878C77.8622 58.0878 78.434 57.8092 78.8788 57.2471L79.3676 57.5697C79.1379 57.9119 78.83 58.1807 78.4438 58.3713C78.0577 58.562 77.6178 58.6548 77.1241 58.6548C76.3665 58.6548 75.7408 58.4153 75.2423 57.9314C74.7437 57.4524 74.4944 56.8659 74.4944 56.1767C74.4944 55.7124 74.6117 55.2822 74.8415 54.8863C75.0761 54.4904 75.3938 54.1776 75.8044 53.9576C76.2101 53.7328 76.6695 53.6252 77.173 53.6252C77.4907 53.6252 77.7937 53.6741 78.0919 53.7719C78.3852 53.8696 78.6344 53.9967 78.8397 54.1482C79.045 54.3047 79.221 54.5002 79.3627 54.7446H79.3725Z" fill="#1C316A"/>
<path d="M80.7719 51.7844C80.9136 51.7844 81.0309 51.8333 81.1287 51.9359C81.2265 52.0337 81.2802 52.1559 81.2802 52.2976C81.2802 52.4394 81.2314 52.5518 81.1287 52.6545C81.0309 52.7522 80.9088 52.806 80.7719 52.806C80.635 52.806 80.5177 52.7571 80.4151 52.6545C80.3173 52.5567 80.2684 52.4345 80.2684 52.2976C80.2684 52.1608 80.3173 52.0386 80.4151 51.9359C80.5128 51.8382 80.6301 51.7844 80.7719 51.7844ZM80.464 53.7542H81.0798V58.5394H80.464V53.7542Z" fill="#1C316A"/>
<path d="M87.1302 53.7531V58.5383H86.5241V57.7171C86.265 58.0299 85.9766 58.2645 85.654 58.4258C85.3314 58.5822 84.9844 58.6653 84.6031 58.6653C83.9286 58.6653 83.347 58.4209 82.868 57.9273C82.3889 57.4385 82.1494 56.8373 82.1494 56.1334C82.1494 55.4296 82.3889 54.8577 82.8728 54.364C83.3567 53.8753 83.9384 53.6309 84.6178 53.6309C85.0088 53.6309 85.3656 53.714 85.6834 53.8801C86.0011 54.0463 86.2797 54.2956 86.5192 54.6329V53.7531H87.1253H87.1302ZM84.6667 54.2223C84.3245 54.2223 84.0068 54.3054 83.7184 54.4765C83.4301 54.6426 83.2003 54.8821 83.0244 55.1852C82.8533 55.4882 82.7653 55.8108 82.7653 56.153C82.7653 56.4951 82.8533 56.8128 83.0244 57.1208C83.1954 57.4287 83.4301 57.6682 83.7233 57.8393C84.0166 58.0104 84.3294 58.0983 84.6618 58.0983C84.9942 58.0983 85.3168 58.0153 85.6198 57.8442C85.9229 57.6731 86.1526 57.4434 86.3188 57.155C86.4801 56.8666 86.5632 56.5391 86.5632 56.1774C86.5632 55.6251 86.3823 55.1608 86.0157 54.7893C85.6491 54.4178 85.2043 54.2321 84.6716 54.2321L84.6667 54.2223Z" fill="#1C316A"/>
<path d="M88.4201 51.9062H89.0359V58.5391H88.4201V51.9062Z" fill="#1C316A"/>
<path d="M92.8188 53.7531H93.4347V54.6329C93.6791 54.3005 93.9577 54.0463 94.2754 53.8801C94.5931 53.714 94.945 53.6309 95.336 53.6309C96.0155 53.6309 96.5971 53.8753 97.081 54.364C97.5649 54.8528 97.8044 55.4443 97.8044 56.1334C97.8044 56.8226 97.5649 57.4336 97.0859 57.9273C96.6069 58.4161 96.0301 58.6653 95.3507 58.6653C94.9695 58.6653 94.6175 58.5871 94.2998 58.4258C93.9821 58.2694 93.6937 58.0299 93.4347 57.7171V60.2881H92.8188V53.7531ZM95.2823 54.2223C94.7495 54.2223 94.2998 54.408 93.9381 54.7795C93.5764 55.151 93.3907 55.6153 93.3907 56.1677C93.3907 56.5294 93.4738 56.8568 93.6351 57.1452C93.7964 57.4336 94.031 57.6633 94.334 57.8344C94.6371 58.0055 94.9548 58.0886 95.2921 58.0886C95.6293 58.0886 95.9324 58.0055 96.2256 57.8295C96.5189 57.6584 96.7486 57.4189 96.9197 57.111C97.0908 56.8031 97.1788 56.4805 97.1788 56.1432C97.1788 55.806 97.0908 55.4834 96.9197 55.1754C96.7486 54.8724 96.5189 54.6329 96.2305 54.4667C95.9421 54.3005 95.6244 54.2125 95.2823 54.2125V54.2223Z" fill="#1C316A"/>
<path d="M98.7202 53.7531H99.3507V54.452C99.5413 54.1783 99.7368 53.9681 99.947 53.8362C100.157 53.6993 100.372 53.6309 100.597 53.6309C100.768 53.6309 100.949 53.6846 101.145 53.7922L100.822 54.3103C100.695 54.2565 100.582 54.2272 100.494 54.2272C100.289 54.2272 100.089 54.3103 99.8981 54.4813C99.7075 54.6524 99.5609 54.9115 99.4631 55.2683C99.3849 55.542 99.3507 56.0943 99.3507 56.9204V58.5383H98.7202V53.7531Z" fill="#1C316A"/>
<path d="M103.923 53.6309C104.661 53.6309 105.272 53.8997 105.756 54.4325C106.196 54.9213 106.416 55.4931 106.416 56.1628C106.416 56.8324 106.181 57.4141 105.717 57.9126C105.252 58.4112 104.651 58.6605 103.923 58.6605C103.195 58.6605 102.589 58.4112 102.124 57.9126C101.66 57.4141 101.425 56.8275 101.425 56.1628C101.425 55.498 101.645 54.9261 102.085 54.4374C102.569 53.8997 103.18 53.6309 103.923 53.6309ZM103.923 54.2321C103.41 54.2321 102.97 54.4227 102.603 54.7991C102.237 55.1754 102.051 55.6349 102.051 56.1725C102.051 56.5196 102.134 56.8422 102.305 57.1403C102.471 57.4385 102.701 57.6682 102.984 57.8344C103.268 57.9957 103.581 58.0788 103.923 58.0788C104.265 58.0788 104.578 57.9957 104.861 57.8344C105.145 57.6731 105.375 57.4385 105.541 57.1403C105.707 56.8422 105.79 56.5196 105.79 56.1725C105.79 55.6349 105.604 55.1803 105.238 54.7991C104.866 54.4227 104.426 54.2321 103.918 54.2321H103.923Z" fill="#1C316A"/>
<path d="M109.531 51.9066V52.5078C109.306 52.4101 109.11 52.3612 108.949 52.3612C108.827 52.3612 108.729 52.3856 108.651 52.4345C108.573 52.4834 108.524 52.5372 108.499 52.6007C108.48 52.6642 108.47 52.8304 108.47 53.1041V53.7493H109.467V54.2821H108.465V58.5345H107.844V54.2821H107.214V53.7493H107.844V53.0015C107.844 52.6593 107.874 52.415 107.937 52.2683C108.001 52.1217 108.108 52.0044 108.26 51.9164C108.411 51.8284 108.592 51.7844 108.807 51.7844C109.008 51.7844 109.247 51.8235 109.526 51.9066H109.531Z" fill="#1C316A"/>
<path d="M114.415 56.9502L114.933 57.2239C114.762 57.5563 114.567 57.83 114.342 58.0353C114.117 58.2406 113.868 58.397 113.589 58.5045C113.311 58.6121 112.993 58.6658 112.641 58.6658C111.859 58.6658 111.248 58.4117 110.808 57.8984C110.368 57.3852 110.148 56.8084 110.148 56.1632C110.148 55.5572 110.334 55.0146 110.705 54.5405C111.179 53.9344 111.81 53.6362 112.602 53.6362C113.394 53.6362 114.068 53.9442 114.557 54.5649C114.904 54.9999 115.08 55.5474 115.085 56.2023H110.779C110.788 56.7596 110.969 57.2141 111.311 57.5709C111.654 57.9278 112.079 58.1037 112.582 58.1037C112.827 58.1037 113.061 58.0597 113.291 57.9766C113.521 57.8935 113.716 57.7811 113.878 57.6394C114.039 57.4976 114.215 57.2728 114.401 56.96L114.415 56.9502ZM114.415 55.6598C114.332 55.3323 114.215 55.0684 114.058 54.8729C113.902 54.6773 113.692 54.516 113.438 54.3987C113.179 54.2765 112.91 54.2179 112.621 54.2179C112.152 54.2179 111.746 54.3694 111.409 54.6725C111.165 54.8924 110.979 55.2199 110.852 55.6598H114.42H114.415Z" fill="#1C316A"/>
<path d="M118.644 54.2753L118.249 54.6859C117.921 54.3682 117.598 54.2069 117.286 54.2069C117.085 54.2069 116.914 54.2753 116.772 54.4024C116.631 54.5344 116.557 54.6908 116.557 54.8619C116.557 55.0183 116.616 55.1649 116.733 55.3067C116.851 55.4484 117.1 55.6195 117.476 55.8101C117.936 56.0496 118.244 56.2745 118.41 56.4944C118.571 56.7192 118.649 56.9685 118.649 57.2471C118.649 57.6382 118.512 57.9754 118.234 58.2443C117.955 58.518 117.613 58.6548 117.198 58.6548C116.924 58.6548 116.655 58.5962 116.406 58.474C116.157 58.3518 115.946 58.1905 115.78 57.9754L116.166 57.5355C116.479 57.8923 116.816 58.0683 117.168 58.0683C117.418 58.0683 117.628 57.9901 117.799 57.8288C117.97 57.6724 118.058 57.4866 118.058 57.2716C118.058 57.0956 117.999 56.9392 117.887 56.8023C117.774 56.6655 117.515 56.4993 117.11 56.294C116.68 56.0692 116.386 55.8492 116.23 55.6341C116.073 55.4191 115.995 55.1698 115.995 54.8912C115.995 54.5295 116.117 54.2264 116.367 53.9869C116.616 53.7474 116.929 53.6252 117.305 53.6252C117.745 53.6252 118.19 53.8403 118.635 54.2704L118.644 54.2753Z" fill="#1C316A"/>
<path d="M122.143 54.2753L121.747 54.6859C121.419 54.3682 121.097 54.2069 120.784 54.2069C120.583 54.2069 120.412 54.2753 120.271 54.4024C120.129 54.5344 120.056 54.6908 120.056 54.8619C120.056 55.0183 120.114 55.1649 120.232 55.3067C120.349 55.4484 120.598 55.6195 120.975 55.8101C121.434 56.0496 121.742 56.2745 121.908 56.4944C122.069 56.7192 122.148 56.9685 122.148 57.2471C122.148 57.6382 122.011 57.9754 121.732 58.2443C121.454 58.518 121.111 58.6548 120.696 58.6548C120.422 58.6548 120.153 58.5962 119.904 58.474C119.655 58.3518 119.445 58.1905 119.278 57.9754L119.665 57.5355C119.982 57.8923 120.315 58.0683 120.667 58.0683C120.916 58.0683 121.126 57.9901 121.297 57.8288C121.468 57.6724 121.556 57.4866 121.556 57.2716C121.556 57.0956 121.498 56.9392 121.385 56.8023C121.273 56.6655 121.014 56.4993 120.608 56.294C120.178 56.0692 119.885 55.8492 119.728 55.6341C119.572 55.4191 119.493 55.1698 119.493 54.8912C119.493 54.5295 119.616 54.2264 119.865 53.9869C120.114 53.7474 120.427 53.6252 120.803 53.6252C121.243 53.6252 121.688 53.8403 122.133 54.2704L122.143 54.2753Z" fill="#1C316A"/>
<path d="M123.444 51.7844C123.586 51.7844 123.703 51.8333 123.801 51.9359C123.898 52.0337 123.952 52.1559 123.952 52.2976C123.952 52.4394 123.903 52.5518 123.801 52.6545C123.703 52.7522 123.581 52.806 123.444 52.806C123.307 52.806 123.19 52.7571 123.087 52.6545C122.989 52.5567 122.94 52.4345 122.94 52.2976C122.94 52.1608 122.989 52.0386 123.087 51.9359C123.185 51.8382 123.302 51.7844 123.444 51.7844ZM123.136 53.7542H123.752V58.5394H123.136V53.7542Z" fill="#1C316A"/>
<path d="M127.295 53.6309C128.034 53.6309 128.644 53.8997 129.128 54.4325C129.568 54.9213 129.788 55.4931 129.788 56.1628C129.788 56.8324 129.554 57.4141 129.089 57.9126C128.625 58.4112 128.024 58.6605 127.295 58.6605C126.567 58.6605 125.961 58.4112 125.497 57.9126C125.032 57.4141 124.798 56.8275 124.798 56.1628C124.798 55.498 125.018 54.9261 125.458 54.4374C125.942 53.8997 126.552 53.6309 127.295 53.6309ZM127.295 54.2321C126.782 54.2321 126.342 54.4227 125.976 54.7991C125.609 55.1754 125.423 55.6349 125.423 56.1725C125.423 56.5196 125.506 56.8422 125.678 57.1403C125.844 57.4385 126.069 57.6682 126.357 57.8344C126.64 57.9957 126.953 58.0788 127.295 58.0788C127.638 58.0788 127.95 57.9957 128.234 57.8344C128.517 57.6731 128.747 57.4385 128.913 57.1403C129.08 56.8422 129.163 56.5196 129.163 56.1725C129.163 55.6349 128.977 55.1803 128.61 54.7991C128.239 54.4227 127.799 54.2321 127.295 54.2321Z" fill="#1C316A"/>
<path d="M130.937 53.7523H131.553V54.6077C131.798 54.2802 132.071 54.0358 132.37 53.8696C132.668 53.7083 132.995 53.6252 133.347 53.6252C133.699 53.6252 134.022 53.7181 134.3 53.899C134.579 54.0798 134.784 54.3242 134.916 54.6321C135.048 54.9401 135.112 55.4191 135.112 56.0692V58.5326H134.496V56.25C134.496 55.6977 134.471 55.3311 134.427 55.1454C134.359 54.8277 134.222 54.5881 134.017 54.4317C133.816 54.2704 133.552 54.1922 133.225 54.1922C132.853 54.1922 132.521 54.3144 132.223 54.5637C131.93 54.8081 131.734 55.116 131.641 55.4777C131.583 55.7172 131.553 56.1474 131.553 56.7779V58.5326H130.937V53.7474V53.7523Z" fill="#1C316A"/>
<path d="M141.195 53.7531V58.5383H140.589V57.7171C140.33 58.0299 140.042 58.2645 139.719 58.4258C139.397 58.5822 139.05 58.6653 138.668 58.6653C137.994 58.6653 137.412 58.4209 136.933 57.9273C136.454 57.4385 136.215 56.8373 136.215 56.1334C136.215 55.4296 136.454 54.8577 136.938 54.364C137.422 53.8753 138.004 53.6309 138.683 53.6309C139.074 53.6309 139.431 53.714 139.749 53.8801C140.066 54.0463 140.345 54.2956 140.585 54.6329V53.7531H141.191H141.195ZM138.732 54.2223C138.39 54.2223 138.072 54.3054 137.784 54.4765C137.495 54.6426 137.266 54.8821 137.09 55.1852C136.919 55.4882 136.831 55.8108 136.831 56.153C136.831 56.4951 136.919 56.8128 137.09 57.1208C137.261 57.4287 137.495 57.6682 137.789 57.8393C138.082 58.0104 138.395 58.0983 138.727 58.0983C139.06 58.0983 139.382 58.0153 139.685 57.8442C139.988 57.6731 140.218 57.4434 140.384 57.155C140.545 56.8666 140.628 56.5391 140.628 56.1774C140.628 55.6251 140.448 55.1608 140.081 54.7893C139.714 54.4178 139.27 54.2321 138.737 54.2321L138.732 54.2223Z" fill="#1C316A"/>
<path d="M142.487 51.9062H143.103V58.5391H142.487V51.9062Z" fill="#1C316A"/>
<path d="M149.275 54.2753L148.88 54.6859C148.552 54.3682 148.229 54.2069 147.917 54.2069C147.716 54.2069 147.545 54.2753 147.403 54.4024C147.262 54.5344 147.188 54.6908 147.188 54.8619C147.188 55.0183 147.247 55.1649 147.364 55.3067C147.482 55.4484 147.731 55.6195 148.107 55.8101C148.567 56.0496 148.875 56.2745 149.041 56.4944C149.202 56.7192 149.28 56.9685 149.28 57.2471C149.28 57.6382 149.143 57.9754 148.865 58.2443C148.586 58.518 148.244 58.6548 147.829 58.6548C147.555 58.6548 147.286 58.5962 147.037 58.474C146.788 58.3518 146.577 58.1905 146.411 57.9754L146.797 57.5355C147.115 57.8923 147.447 58.0683 147.799 58.0683C148.049 58.0683 148.259 57.9901 148.43 57.8288C148.601 57.6724 148.689 57.4866 148.689 57.2716C148.689 57.0956 148.63 56.9392 148.518 56.8023C148.405 56.6655 148.146 56.4993 147.741 56.294C147.311 56.0692 147.017 55.8492 146.861 55.6341C146.704 55.4191 146.626 55.1698 146.626 54.8912C146.626 54.5295 146.748 54.2264 146.998 53.9869C147.247 53.7474 147.56 53.6252 147.936 53.6252C148.376 53.6252 148.821 53.8403 149.266 54.2704L149.275 54.2753Z" fill="#1C316A"/>
<path d="M154.402 56.9502L154.92 57.2239C154.749 57.5563 154.554 57.83 154.329 58.0353C154.104 58.2406 153.855 58.397 153.576 58.5045C153.297 58.6121 152.98 58.6658 152.628 58.6658C151.846 58.6658 151.235 58.4117 150.795 57.8984C150.355 57.3852 150.135 56.8084 150.135 56.1632C150.135 55.5572 150.321 55.0146 150.692 54.5405C151.166 53.9344 151.797 53.6362 152.589 53.6362C153.38 53.6362 154.055 53.9442 154.544 54.5649C154.891 54.9999 155.067 55.5474 155.072 56.2023H150.765C150.775 56.7596 150.956 57.2141 151.298 57.5709C151.64 57.9278 152.066 58.1037 152.569 58.1037C152.813 58.1037 153.048 58.0597 153.278 57.9766C153.508 57.8935 153.703 57.7811 153.864 57.6394C154.026 57.4976 154.202 57.2728 154.387 56.96L154.402 56.9502ZM154.402 55.6598C154.319 55.3323 154.202 55.0684 154.045 54.8729C153.889 54.6773 153.679 54.516 153.424 54.3987C153.165 54.2765 152.897 54.2179 152.608 54.2179C152.139 54.2179 151.733 54.3694 151.396 54.6725C151.152 54.8924 150.966 55.2199 150.839 55.6598H154.407H154.402Z" fill="#1C316A"/>
<path d="M155.994 53.7531H156.625V54.452C156.816 54.1783 157.011 53.9681 157.221 53.8362C157.431 53.6993 157.647 53.6309 157.871 53.6309C158.042 53.6309 158.223 53.6846 158.419 53.7922L158.096 54.3103C157.969 54.2565 157.857 54.2272 157.769 54.2272C157.563 54.2272 157.363 54.3103 157.172 54.4813C156.982 54.6524 156.835 54.9115 156.737 55.2683C156.659 55.542 156.625 56.0943 156.625 56.9204V58.5383H155.994V53.7531Z" fill="#1C316A"/>
<path d="M159.15 51.7844C159.292 51.7844 159.409 51.8333 159.507 51.9359C159.605 52.0337 159.659 52.1559 159.659 52.2976C159.659 52.4394 159.61 52.5518 159.507 52.6545C159.409 52.7522 159.287 52.806 159.15 52.806C159.013 52.806 158.896 52.7571 158.793 52.6545C158.696 52.5567 158.647 52.4345 158.647 52.2976C158.647 52.1608 158.696 52.0386 158.793 51.9359C158.891 51.8382 159.008 51.7844 159.15 51.7844ZM158.842 53.7542H159.458V58.5394H158.842V53.7542Z" fill="#1C316A"/>
<path d="M164.768 56.9502L165.286 57.2239C165.115 57.5563 164.919 57.83 164.694 58.0353C164.469 58.2406 164.22 58.397 163.942 58.5045C163.663 58.6121 163.345 58.6658 162.993 58.6658C162.211 58.6658 161.6 58.4117 161.16 57.8984C160.72 57.3852 160.501 56.8084 160.501 56.1632C160.501 55.5572 160.686 55.0146 161.058 54.5405C161.532 53.9344 162.162 53.6362 162.954 53.6362C163.746 53.6362 164.421 53.9442 164.909 54.5649C165.256 54.9999 165.432 55.5474 165.437 56.2023H161.131C161.141 56.7596 161.322 57.2141 161.664 57.5709C162.006 57.9278 162.431 58.1037 162.935 58.1037C163.179 58.1037 163.414 58.0597 163.643 57.9766C163.873 57.8935 164.069 57.7811 164.23 57.6394C164.391 57.4976 164.567 57.2728 164.753 56.96L164.768 56.9502ZM164.768 55.6598C164.685 55.3323 164.567 55.0684 164.411 54.8729C164.254 54.6773 164.044 54.516 163.79 54.3987C163.531 54.2765 163.262 54.2179 162.974 54.2179C162.505 54.2179 162.099 54.3694 161.762 54.6725C161.517 54.8924 161.331 55.2199 161.204 55.6598H164.772H164.768Z" fill="#1C316A"/>
<path d="M168.999 54.2753L168.603 54.6859C168.275 54.3682 167.953 54.2069 167.64 54.2069C167.439 54.2069 167.268 54.2753 167.127 54.4024C166.985 54.5344 166.912 54.6908 166.912 54.8619C166.912 55.0183 166.97 55.1649 167.088 55.3067C167.205 55.4484 167.454 55.6195 167.83 55.8101C168.29 56.0496 168.598 56.2745 168.764 56.4944C168.925 56.7192 169.004 56.9685 169.004 57.2471C169.004 57.6382 168.867 57.9754 168.588 58.2443C168.31 58.518 167.967 58.6548 167.552 58.6548C167.278 58.6548 167.009 58.5962 166.76 58.474C166.511 58.3518 166.301 58.1905 166.134 57.9754L166.521 57.5355C166.833 57.8923 167.171 58.0683 167.523 58.0683C167.772 58.0683 167.982 57.9901 168.153 57.8288C168.324 57.6724 168.412 57.4866 168.412 57.2716C168.412 57.0956 168.354 56.9392 168.241 56.8023C168.129 56.6655 167.87 56.4993 167.464 56.294C167.034 56.0692 166.741 55.8492 166.584 55.6341C166.428 55.4191 166.349 55.1698 166.349 54.8912C166.349 54.5295 166.472 54.2264 166.721 53.9869C166.97 53.7474 167.283 53.6252 167.659 53.6252C168.099 53.6252 168.544 53.8403 168.989 54.2704L168.999 54.2753Z" fill="#1C316A"/>
</svg>
