<svg width="29" height="28" viewBox="0 0 29 28" fill="none" xmlns="http://www.w3.org/2000/svg">
<path d="M23.2201 8.24996H5.77996C5.77361 8.24347 5.76468 8.23288 5.75357 8.21622C5.70985 8.15064 5.66663 8.03138 5.66663 7.87498C5.66663 7.71855 5.70985 7.5993 5.75356 7.53372C5.76467 7.51707 5.7736 7.50648 5.77994 7.5H23.22C23.2264 7.50648 23.2353 7.51707 23.2464 7.53372C23.2901 7.59928 23.3334 7.71853 23.3334 7.87498C23.3334 8.0314 23.2901 8.15066 23.2464 8.21623C23.2353 8.23289 23.2264 8.24348 23.2201 8.24996ZM23.209 7.49095C23.2091 7.49078 23.2103 7.49139 23.2127 7.49328C23.2102 7.49206 23.209 7.49112 23.209 7.49095ZM5.79095 7.49095C5.79099 7.49111 5.78979 7.49206 5.78726 7.49328C5.78965 7.49139 5.79092 7.49078 5.79095 7.49095ZM5.79098 8.25901C5.79094 8.25918 5.78968 8.25857 5.78729 8.25668C5.78982 8.2579 5.79101 8.25884 5.79098 8.25901ZM23.2127 8.25668C23.2103 8.25856 23.2091 8.25917 23.209 8.25901C23.209 8.25884 23.2102 8.2579 23.2127 8.25668Z" fill="white" stroke="white"/>
<path d="M5.75356 13.6587C5.76467 13.6421 5.7736 13.6315 5.77994 13.625H23.2201C23.2264 13.6315 23.2353 13.6421 23.2464 13.6587C23.2901 13.7243 23.3334 13.8436 23.3334 14C23.3334 14.1564 23.2901 14.2757 23.2464 14.3412C23.2353 14.3579 23.2264 14.3685 23.2201 14.375H5.77996C5.77361 14.3685 5.76468 14.3579 5.75357 14.3412C5.70985 14.2756 5.66663 14.1564 5.66663 14C5.66663 13.8436 5.70985 13.7243 5.75356 13.6587ZM23.209 13.6159C23.2091 13.6158 23.2103 13.6164 23.2127 13.6183C23.2102 13.6171 23.209 13.6161 23.209 13.6159ZM23.209 14.384C23.209 14.3838 23.2102 14.3829 23.2127 14.3817C23.2103 14.3836 23.2091 14.3842 23.209 14.384ZM5.79098 14.384C5.79094 14.3842 5.78968 14.3836 5.78729 14.3817C5.78982 14.3829 5.79101 14.3838 5.79098 14.384ZM5.78726 13.6183C5.78965 13.6164 5.79092 13.6158 5.79095 13.6159C5.79099 13.6161 5.78979 13.6171 5.78726 13.6183Z" fill="white" stroke="white"/>
<path d="M23.3333 20.1249V20.125C23.3333 20.2814 23.29 20.4007 23.2463 20.4662C23.2352 20.4829 23.2263 20.4935 23.2199 20.5H11.6132C11.6069 20.4935 11.5979 20.4829 11.5868 20.4662C11.5431 20.4007 11.4999 20.2814 11.4999 20.125C11.4999 19.9686 11.5431 19.8493 11.5868 19.7837C11.5979 19.7671 11.6068 19.7565 11.6132 19.75H23.22C23.2263 19.7565 23.2352 19.7671 23.2463 19.7837C23.29 19.8493 23.3333 19.9685 23.3333 20.1249ZM23.2089 20.509C23.2089 20.5088 23.2101 20.5079 23.2126 20.5067C23.2102 20.5086 23.209 20.5092 23.2089 20.509ZM11.6242 20.509C11.6242 20.5092 11.6229 20.5086 11.6205 20.5067C11.623 20.5079 11.6242 20.5088 11.6242 20.509ZM11.6242 19.7409C11.6242 19.7411 11.623 19.7421 11.6205 19.7433C11.6229 19.7414 11.6242 19.7408 11.6242 19.7409ZM23.209 19.741C23.209 19.7408 23.2103 19.7414 23.2127 19.7433C23.2101 19.7421 23.2089 19.7411 23.209 19.741Z" fill="white" stroke="white"/>
</svg>
