<svg width="65" height="64" viewBox="0 0 65 64" fill="none" xmlns="http://www.w3.org/2000/svg">
<g clip-path="url(#clip0_1_945)">
<path d="M64.3334 45.25L64.3334 18.75C64.3334 8.395 55.9384 -3.66957e-07 45.5834 -8.19589e-07L19.0834 -1.97794e-06C8.72837 -2.43057e-06 0.333374 8.395 0.333373 18.75L0.333372 45.25C0.333372 55.605 8.72837 64 19.0834 64L45.5834 64C55.9384 64 64.3334 55.605 64.3334 45.25ZM19.0834 62.75C9.43337 62.75 1.58337 54.9 1.58337 45.25L1.58337 18.75C1.58337 9.1 9.43337 1.25 19.0834 1.25L45.5834 1.25C55.2334 1.25 63.0834 9.1 63.0834 18.75L63.0834 45.25C63.0834 54.9 55.2334 62.75 45.5834 62.75L19.0834 62.75ZM39.0009 31.5187L39.0009 42.2062C39.0009 44.6187 40.9634 46.5812 43.3759 46.5812C45.7884 46.5812 47.7509 44.6187 47.7509 42.2062L47.7509 20.9575C47.7509 18.545 45.7884 16.5825 43.3759 16.5825L22.1259 16.5825C19.7134 16.5825 17.7509 18.545 17.7509 20.9575C17.7509 23.37 19.7134 25.3325 22.1259 25.3325L32.8134 25.3325L18.1959 39.95C17.3696 40.7762 16.9146 41.875 16.9146 43.0437C16.9146 44.2125 17.3696 45.3113 18.1959 46.1375C19.0221 46.9637 20.1209 47.4187 21.2896 47.4187C22.4584 47.4187 23.5571 46.9637 24.3834 46.1375L39.0009 31.52L39.0009 31.5187ZM19.0809 45.2525C17.8609 44.0325 17.8609 42.0537 19.0809 40.8325L35.8321 24.0825L22.1271 24.0825C20.4009 24.0825 19.0021 22.6837 19.0021 20.9575C19.0021 19.2312 20.4009 17.8325 22.1271 17.8325L43.3759 17.8325C45.1021 17.8325 46.5009 19.2312 46.5009 20.9575L46.5009 42.2075C46.5009 43.9337 45.1021 45.3325 43.3759 45.3325C41.6496 45.3325 40.2509 43.9337 40.2509 42.2075L40.2509 28.5025L23.4996 45.2537C22.2796 46.4737 20.3009 46.4737 19.0796 45.2537L19.0809 45.2525Z" fill="url(#paint0_linear_1_945)"/>
</g>
<defs>
<linearGradient id="paint0_linear_1_945" x1="64.3334" y1="32" x2="0.333373" y2="32" gradientUnits="userSpaceOnUse">
<stop stop-color="#55A9B9"/>
<stop offset="1" stop-color="#8CC7D2"/>
</linearGradient>
<clipPath id="clip0_1_945">
<rect width="64" height="64" fill="white" transform="translate(64.3334) rotate(90)"/>
</clipPath>
</defs>
</svg>
