<svg width="52" height="52" viewBox="0 0 52 52" fill="none" xmlns="http://www.w3.org/2000/svg">
<g clip-path="url(#clip0_1_776)">
<path d="M25.9992 51.5407C25.8065 51.5406 25.637 51.4133 25.5833 51.2283C25.5295 51.0433 25.6043 50.845 25.7669 50.7416L31.8145 46.8867L24.0925 51.3396C23.8887 51.4485 23.6353 51.3782 23.5166 51.18C23.3979 50.9817 23.4557 50.7251 23.6479 50.5969L24.6013 50.0067L22.5369 51.1984C22.3322 51.3137 22.0728 51.2449 21.9523 51.0432C21.8317 50.8415 21.8938 50.5805 22.0923 50.4548L24.2061 49.1548L21.1502 50.9184C20.946 51.0309 20.6894 50.9617 20.5695 50.7617C20.4496 50.5618 20.5094 50.3029 20.7047 50.1757L28.0055 45.6292L19.4645 50.5588C19.2602 50.668 19.006 50.5971 18.8877 50.3978C18.7694 50.1985 18.8288 49.9414 19.0225 49.8143L19.1716 49.7224L18.3769 50.1809C18.1731 50.2913 17.9186 50.2218 17.7992 50.0233C17.6797 49.8247 17.7376 49.5673 17.9305 49.439L29.8576 41.9796L16.6747 49.5898C16.4694 49.7069 16.2081 49.6377 16.0875 49.4344C15.9669 49.231 16.0315 48.9686 16.2327 48.8445L18.5632 47.4266L15.6477 49.1097C15.4436 49.2221 15.187 49.1529 15.0671 48.953C14.9472 48.7531 15.0069 48.4941 15.2023 48.367L27.0643 41.0194L14.2576 48.412C14.0518 48.5348 13.7854 48.4675 13.6626 48.2617C13.5399 48.0558 13.6072 47.7895 13.813 47.6667L25.5286 40.4396L12.9897 47.6806C12.7841 47.8031 12.5181 47.7358 12.3956 47.5302C12.273 47.3246 12.3404 47.0586 12.5459 46.9361L25.2365 39.111L11.7928 46.872C11.5894 46.9793 11.3376 46.9089 11.2192 46.7117C11.1007 46.5146 11.157 46.2592 11.3473 46.1301L28.9996 35.1182L10.4157 45.8467C10.2108 45.9581 9.95452 45.8874 9.83574 45.6867C9.71696 45.486 9.77831 45.2273 9.97454 45.1014L12.6187 43.5067L9.68074 45.2028C9.477 45.3131 9.22249 45.2437 9.10303 45.0451C8.98358 44.8466 9.04146 44.5892 9.23441 44.4609L28.3522 32.5347L8.39894 44.0544C8.19465 44.1652 7.93935 44.0951 7.82027 43.8955C7.70118 43.696 7.76072 43.438 7.95521 43.3108L24.4037 33.1604L7.45254 42.9486C7.24625 43.0701 6.98045 43.0014 6.85888 42.7952C6.7373 42.5889 6.80598 42.3231 7.01228 42.2015L9.04288 40.9786L6.84588 42.2448C6.64181 42.351 6.39033 42.2792 6.27306 42.0813C6.15579 41.8834 6.2136 41.6284 6.40474 41.5004L17.6714 34.6294L6.06588 41.3331C5.86159 41.4439 5.60629 41.3738 5.4872 41.1742C5.36812 40.9746 5.42765 40.7167 5.62214 40.5895L20.9439 31.181L5.32748 40.196C5.1227 40.3092 4.86502 40.2394 4.74539 40.0383C4.62576 39.8372 4.68739 39.5775 4.88461 39.4516L19.3857 30.5656L4.63588 39.0806C4.4303 39.2032 4.16431 39.1358 4.04178 38.9303C3.91924 38.7247 3.98656 38.4587 4.19214 38.3362L20.261 28.4562L3.90441 37.8976C3.69907 38.0206 3.43289 37.9539 3.30988 37.7486C3.18686 37.5432 3.2536 37.277 3.45894 37.154L22.6235 25.2694L3.28561 36.4338C3.0809 36.5491 2.82157 36.4803 2.70099 36.2786C2.58041 36.077 2.64252 35.816 2.84101 35.6902L19.9629 25.1212L2.71361 35.081C2.50819 35.1954 2.249 35.1251 2.12952 34.9226C2.01003 34.7201 2.07385 34.4592 2.27334 34.3348L5.80068 32.2062L2.36001 34.1926C2.15533 34.3106 1.89382 34.2429 1.77212 34.0404C1.65042 33.8379 1.71339 33.5752 1.91368 33.4499L21.2568 21.4067L1.95441 32.5486C1.74883 32.6713 1.48265 32.6042 1.35988 32.3986C1.2371 32.193 1.30423 31.9269 1.50981 31.8041L16.4659 22.5897L1.61294 31.1636C1.40887 31.2698 1.1574 31.198 1.04012 31.0001C0.922854 30.8022 0.980666 30.5472 1.17181 30.4192L9.91734 25.09L1.40148 30.0066C1.19609 30.1237 0.934791 30.0545 0.81421 29.8512C0.693629 29.6478 0.758263 29.3854 0.959477 29.2613L6.59714 25.8397L1.31048 28.8912C1.1049 29.014 0.838716 28.9469 0.715943 28.7413C0.59317 28.5357 0.660298 28.2695 0.865877 28.1468L8.29581 23.6175L1.21254 27.7073C1.00835 27.8198 0.751774 27.7506 0.631871 27.5507C0.511968 27.3507 0.57171 27.0918 0.767077 26.9646L16.9165 16.8758L1.13541 25.9862C0.932739 26.0865 0.686981 26.0141 0.571061 25.8199C0.455141 25.6257 0.508043 25.3751 0.692543 25.2443L16.4087 15.3781L1.26021 24.1237C1.05616 24.2403 0.796357 24.173 0.674579 23.972C0.552801 23.771 0.613445 23.5096 0.811277 23.3827L17.1202 13.0191L1.53234 22.0186C1.3287 22.1305 1.07298 22.0619 0.952723 21.8631C0.83247 21.6642 0.890511 21.4059 1.08428 21.2776L13.2592 13.6154L1.90588 20.1691C1.70168 20.2815 1.44511 20.2123 1.3252 20.0124C1.2053 19.8125 1.26504 19.5535 1.46041 19.4264L8.09821 15.3054L2.38688 18.603C2.18154 18.7263 1.91516 18.6597 1.79191 18.4544C1.66866 18.249 1.7352 17.9827 1.94054 17.8594L7.48721 14.4032L2.93201 17.0335C2.72941 17.1451 2.47489 17.0779 2.35378 16.8808C2.23267 16.6837 2.28768 16.4263 2.47874 16.296L12.7921 9.60008L4.07254 14.6346C3.86786 14.7526 3.60636 14.6849 3.48466 14.4824C3.36295 14.2798 3.42592 14.0172 3.62621 13.8918L5.12554 12.9498L5.00074 13.0217C4.79874 13.1349 4.5434 13.0693 4.42099 12.8727C4.29859 12.6761 4.35239 12.4181 4.54314 12.2868L10.6159 8.22555L6.94728 10.3437C6.74845 10.4594 6.49387 10.3995 6.36739 10.2074C6.24091 10.0153 6.2866 9.75777 6.47148 9.62088L10.6809 6.48788C10.5096 6.44509 10.3814 6.30263 10.3568 6.12777C10.3322 5.95291 10.4162 5.78064 10.5691 5.69228L15.8592 2.63642C16.058 2.52073 16.3126 2.58056 16.4391 2.7727C16.5656 2.96484 16.5199 3.22233 16.335 3.35922L12.968 5.86735L21.6303 0.866684C21.8328 0.751553 22.09 0.816969 22.2128 1.01481C22.3356 1.21265 22.2801 1.47218 22.0871 1.60248L16.0091 5.66368L24.7859 0.598017C24.9906 0.479993 25.2521 0.547692 25.3738 0.750211C25.4955 0.95273 25.4325 1.21541 25.2322 1.34075L23.732 2.28195L26.683 0.578084C26.8864 0.459796 27.1471 0.525449 27.2702 0.725985C27.3933 0.92652 27.3338 1.18865 27.1363 1.31648L16.8316 8.00802L29.3506 0.780017C29.556 0.656766 29.8223 0.723311 29.9456 0.928651C30.0688 1.13399 30.0023 1.40037 29.7969 1.52362L24.2503 4.98075L30.9565 1.10762C31.1613 0.992289 31.4206 1.06112 31.5412 1.26279C31.6617 1.46445 31.5996 1.72547 31.4011 1.85122L24.7607 5.98002L32.5859 1.45948C32.7892 1.35082 33.042 1.42037 33.1611 1.61775C33.2803 1.81514 33.224 2.07123 33.0331 2.20048L20.8564 9.86095L34.3487 2.07222C34.5519 1.96209 34.8058 2.03084 34.9256 2.22847C35.0455 2.4261 34.9892 2.68302 34.7976 2.81235L18.4921 13.1734L36.3264 2.87735C36.5315 2.75386 36.7979 2.82002 36.9214 3.02512C37.0449 3.23022 36.9787 3.49659 36.7736 3.62008L21.0471 13.4897L37.9861 3.71022C38.1908 3.59219 38.4523 3.65989 38.574 3.86241C38.6957 4.06493 38.6327 4.32761 38.4324 4.45295L22.2821 14.5444L39.462 4.62628C39.6664 4.51704 39.9206 4.58796 40.0389 4.78723C40.1572 4.98651 40.0978 5.2436 39.904 5.37075L32.4923 9.88782L40.4509 5.29448C40.6569 5.17243 40.9229 5.24053 41.045 5.44658C41.167 5.65264 41.0989 5.91863 40.8929 6.04068L35.2257 9.48048L41.347 5.94535C41.5524 5.82831 41.8137 5.89748 41.9343 6.10081C42.0549 6.30414 41.9902 6.5666 41.789 6.69068L33.0677 12.0034L42.2241 6.71668C42.4284 6.60591 42.6837 6.676 42.8028 6.87556C42.9218 7.07512 42.8623 7.33309 42.6678 7.46028L27.7143 16.6756L43.31 7.67175C43.5142 7.55929 43.7708 7.62852 43.8907 7.82844C44.0106 8.02835 43.9508 8.2873 43.7555 8.41448L24.4141 20.4612L44.4245 8.90588C44.63 8.79146 44.8891 8.86173 45.0086 9.06424C45.1281 9.26676 45.0643 9.52761 44.8648 9.65208L41.3392 11.7789L45.0503 9.63648C45.1833 9.55706 45.3485 9.55462 45.4838 9.63008C45.6191 9.70554 45.7038 9.84744 45.7061 10.0023C45.7084 10.1572 45.6279 10.3015 45.4949 10.381L28.3609 20.9543L46.0192 10.7632C46.2231 10.6543 46.4765 10.7245 46.5952 10.9228C46.7139 11.1211 46.6561 11.3777 46.4638 11.5059L27.2992 23.3905L46.8538 12.1004C47.0581 11.9896 47.3134 12.0597 47.4325 12.2593C47.5516 12.4589 47.492 12.7168 47.2975 12.844L31.2321 22.724L47.5879 13.2774C47.7937 13.1548 48.0599 13.2223 48.1824 13.4282C48.3049 13.634 48.2374 13.9002 48.0316 14.0227L33.547 22.9026L48.2301 14.4257C48.4344 14.3149 48.6897 14.385 48.8088 14.5846C48.9278 14.7841 48.8683 15.0421 48.6738 15.1693L33.3338 24.59L48.7622 15.6867C48.9663 15.5805 49.2178 15.6523 49.335 15.8502C49.4523 16.0481 49.3945 16.3032 49.2033 16.4312L37.9367 23.2986L49.2259 16.7778C49.4322 16.6562 49.698 16.7249 49.8195 16.9312C49.9411 17.1375 49.8724 17.4033 49.6661 17.5249L47.6485 18.7382L49.5829 17.622C49.7877 17.5066 50.047 17.5755 50.1676 17.7771C50.2881 17.9788 50.226 18.2398 50.0275 18.3656L33.5747 28.5186L49.9487 19.0667C50.1521 18.9594 50.4039 19.0297 50.5223 19.2269C50.6407 19.4241 50.5845 19.6794 50.3941 19.8086L31.2711 31.7356L50.3525 20.7177C50.558 20.6033 50.8172 20.6735 50.9366 20.876C51.0561 21.0786 50.9923 21.3394 50.7928 21.4639L48.1668 23.0534L50.5709 21.6667C50.7751 21.5542 51.0317 21.6235 51.1516 21.8234C51.2715 22.0233 51.2118 22.2822 51.0164 22.4094L33.3615 33.4196L50.7105 23.4C50.9148 23.2892 51.1701 23.3593 51.2892 23.5589C51.4082 23.7585 51.3487 24.0164 51.1542 24.1436L38.4679 31.9705L50.8257 24.8352C51.0313 24.7124 51.2975 24.7796 51.4203 24.9852C51.543 25.1907 51.4759 25.4569 51.2703 25.5797L39.5495 32.8103L50.8457 26.2886C51.0499 26.1762 51.3064 26.2454 51.4263 26.4453C51.5463 26.6452 51.4865 26.9042 51.2911 27.0314L39.4239 34.3824L50.7408 27.8495C50.9452 27.7402 51.1994 27.8112 51.3177 28.0104C51.436 28.2097 51.3766 28.4668 51.1828 28.594L48.8593 30.0084L50.6654 28.9684C50.8695 28.854 51.1276 28.9223 51.2483 29.1227C51.3691 29.3231 51.3091 29.5831 51.1126 29.7102L39.2063 37.154L50.3109 30.7407C50.5153 30.6314 50.7695 30.7024 50.8878 30.9016C51.0061 31.1009 50.9467 31.358 50.7529 31.4852L50.1688 31.8414C50.3751 31.7823 50.5935 31.883 50.6825 32.0783C50.7714 32.2735 50.7041 32.5045 50.5241 32.6214L43.2147 37.18L49.5725 33.5071C49.7781 33.3843 50.0443 33.4514 50.1671 33.657C50.2899 33.8626 50.2227 34.1288 50.0171 34.2516L47.9172 35.5464L49.1019 34.8626C49.3067 34.7472 49.566 34.8161 49.6866 35.0177C49.8071 35.2194 49.745 35.4804 49.5465 35.6062L48.523 36.238C48.7305 36.1432 48.9759 36.2255 49.0843 36.4263C49.1927 36.627 49.1269 36.8774 48.9338 36.9989L42.8862 40.8547L47.522 38.1784C47.7256 38.0646 47.9826 38.1323 48.1038 38.3316C48.2249 38.5309 48.1665 38.7903 47.9718 38.9186L45.7592 40.3243L46.3061 40.0088C46.5101 39.8893 46.7723 39.9553 46.8953 40.1573C47.0183 40.3593 46.9566 40.6226 46.7567 40.749L45.0823 41.8236C45.266 41.8301 45.4257 41.9517 45.4806 42.1271C45.5356 42.3025 45.4739 42.4935 45.3267 42.6036L41.3583 45.5234C41.5154 45.5813 41.6251 45.7245 41.6401 45.8912C41.6551 46.058 41.5727 46.2184 41.4285 46.3034L36.1418 49.3576C35.943 49.4689 35.692 49.4074 35.5673 49.2167C35.4426 49.026 35.4869 48.7713 35.6686 48.6339L38.5156 46.5392L30.7078 51.0458C30.5043 51.1616 30.2457 51.0949 30.1236 50.8951C30.0016 50.6953 30.0603 50.4347 30.2563 50.3066L30.7971 49.9599L28.4865 51.2937C28.2833 51.4038 28.0294 51.3351 27.9096 51.1374C27.7897 50.9398 27.846 50.6829 28.0376 50.5536L30.2459 49.1556L26.2115 51.48C26.1472 51.5182 26.074 51.5391 25.9992 51.5407Z" fill="#7EA479"/>
<path d="M30.7881 51.0614C42.8249 48.6717 51.5615 38.2051 51.7614 25.935C51.5014 15.1225 44.9251 5.38025 34.5347 1.84165C24.5491 -1.48037 13.5446 1.46763 6.55693 9.33659C-0.652534 17.6424 -1.75379 29.624 3.82086 39.1049C9.43821 48.3227 20.1854 53.0877 30.7881 51.0614ZM26.9851 1.29999C40.2261 1.99332 50.191 13.0251 50.5013 26.065C50.1797 39.7861 39.1237 51.3725 25.0143 50.7C11.8879 49.9025 1.61603 39.085 1.4982 25.935C1.48 12.2469 13.1384 0.56592 26.9851 1.29999Z" fill="#303030"/>
<path d="M20.2231 38.3934C20.5642 38.6366 21.033 38.5879 21.3169 38.2799C27.6724 30.191 34.028 22.1021 40.3835 14.0132C40.8628 13.4065 39.6659 13.3129 39.3522 13.7133L20.8168 37.3066L12.7126 29.2067C12.3521 28.8462 11.1595 29.3367 11.5565 29.7337L20.2231 38.3934Z" fill="#303030"/>
</g>
<defs>
<clipPath id="clip0_1_776">
<rect width="52" height="52" fill="white"/>
</clipPath>
</defs>
</svg>
