<svg width="52" height="52" viewBox="0 0 52 52" fill="none" xmlns="http://www.w3.org/2000/svg">
<g clip-path="url(#clip0_1_785)">
<path d="M26.8748 51.4703C26.6829 51.4704 26.5139 51.3443 26.4592 51.1604C26.4046 50.9765 26.4774 50.7785 26.6382 50.6739L34.8412 45.3265L24.3952 51.3603C24.1918 51.4761 23.9331 51.4093 23.811 51.2095C23.689 51.0097 23.7477 50.7491 23.9437 50.621L34.7242 43.6573L21.8975 51.0656C21.6926 51.1893 21.4263 51.1236 21.3025 50.9187C21.1788 50.7138 21.2446 50.4475 21.4494 50.3237L30.8892 44.3793L19.9804 50.6747C19.7763 50.7891 19.5183 50.7208 19.3975 50.5204C19.2767 50.32 19.3368 50.0599 19.5332 49.9329L30.7756 42.8661L18.209 50.1218C18.0042 50.2371 17.7449 50.1683 17.6243 49.9666C17.5038 49.765 17.5659 49.5039 17.7644 49.3782L25.4725 44.6211L16.7954 49.6313C16.59 49.7483 16.3287 49.6791 16.2082 49.4758C16.0876 49.2725 16.1522 49.01 16.3534 48.8859L19.2412 47.1283L15.7364 49.152C15.531 49.275 15.2648 49.2083 15.1418 49.0029C15.0188 48.7976 15.0856 48.5314 15.2909 48.4084L28.6627 40.0884L14.25 48.4084C14.0459 48.5228 13.7879 48.4544 13.6671 48.2541C13.5463 48.0537 13.6064 47.7936 13.8028 47.6665L26.6572 39.7123L12.9258 47.6362C12.7204 47.7592 12.4542 47.6925 12.3312 47.4871C12.2082 47.2818 12.275 47.0156 12.4803 46.8926L27.9442 37.2847L11.5842 46.7314C11.3798 46.8406 11.1256 46.7697 11.0073 46.5704C10.889 46.3712 10.9484 46.1141 11.1422 45.9869L19.0132 41.1925L10.6274 46.0337C10.4236 46.1441 10.1691 46.0746 10.0496 45.8761C9.93019 45.6775 9.98807 45.4202 10.181 45.2919L29.0562 33.4991L9.32909 44.8932C9.12441 45.0112 8.8629 44.9435 8.7412 44.741C8.6195 44.5385 8.68247 44.2758 8.88276 44.1505L28.7537 31.7303L8.07156 43.6712C7.86684 43.7865 7.60751 43.7177 7.48694 43.516C7.36636 43.3144 7.42847 43.0533 7.62696 42.9276L25.6666 31.7476L7.06102 42.4917C6.85624 42.6049 6.59857 42.5351 6.47894 42.334C6.35931 42.1329 6.42094 41.8731 6.61816 41.7472L20.4285 33.2868L6.20736 41.4976C6.00194 41.612 5.74275 41.5417 5.62326 41.3392C5.50378 41.1367 5.5676 40.8759 5.76709 40.7514L9.76156 38.3421L5.65182 40.715C5.44643 40.832 5.18514 40.7629 5.06456 40.5595C4.94398 40.3562 5.00861 40.0937 5.20982 39.9697L16.7486 32.9375L5.02782 39.7053C4.82408 39.8157 4.56957 39.7462 4.45011 39.5477C4.33066 39.3491 4.38854 39.0918 4.58149 38.9635L25.5418 25.8855L4.12302 38.2519C3.91745 38.3745 3.65146 38.3071 3.52892 38.1016C3.40639 37.896 3.47371 37.63 3.67929 37.5075L19.9666 27.4862L3.51982 36.9814C3.31496 37.0928 3.05866 37.0221 2.93989 36.8214C2.82111 36.6207 2.88245 36.362 3.07869 36.2361L10.1724 31.94L3.11162 36.0133C2.90628 36.1366 2.63991 36.07 2.51666 35.8647C2.39341 35.6594 2.45995 35.393 2.66529 35.2697L22.6212 22.8469L2.46336 34.4828C2.25864 34.5981 1.99932 34.5293 1.87874 34.3276C1.75816 34.126 1.82027 33.8649 2.01876 33.7392L18.209 23.7561L2.08116 33.0649C1.87677 33.1742 1.6226 33.1033 1.50429 32.904C1.38598 32.7047 1.4454 32.4476 1.63916 32.3205L13.7448 24.9131L1.77782 31.8239C1.57248 31.9469 1.3063 31.8801 1.18329 31.6748C1.06028 31.4695 1.12702 31.2033 1.33236 31.0803L19.099 20.0303L1.42249 30.2353C1.21691 30.358 0.95073 30.2909 0.827957 30.0853C0.705185 29.8797 0.772312 29.6136 0.977891 29.4908L14.5092 21.1543L1.30116 28.7784C1.09638 28.8916 0.838701 28.8218 0.71907 28.6207C0.59944 28.4196 0.661069 28.1598 0.858291 28.0339L10.5026 22.1302L1.19802 27.5035C0.994282 27.6139 0.739767 27.5444 0.620312 27.3459C0.500857 27.1473 0.558737 26.89 0.751691 26.7617L16.1489 17.1599L1.14776 25.8265C0.943469 25.9373 0.688167 25.8672 0.569082 25.6676C0.449998 25.4681 0.509532 25.2101 0.704024 25.0829L10.9706 18.7563L1.24656 24.3627C1.04251 24.4793 0.782705 24.412 0.660926 24.211C0.539148 24.01 0.599792 23.7486 0.797624 23.6217L16.8084 13.4817L1.46842 22.3356C1.26499 22.4429 1.01317 22.3726 0.894765 22.1754C0.776364 21.9782 0.832637 21.7229 1.02296 21.5937L11.4732 15.0799L1.81336 20.6517C1.60972 20.7636 1.35399 20.695 1.23374 20.4962C1.11348 20.2973 1.17152 20.039 1.36529 19.9107L12.5678 12.8378L2.34116 18.7424C2.13711 18.859 1.8773 18.7917 1.75553 18.5907C1.63375 18.3897 1.69439 18.1283 1.89222 18.0014L12.5089 11.2258L3.05702 16.6858C2.92497 16.7672 2.7595 16.772 2.62295 16.6984C2.48639 16.6247 2.39951 16.4838 2.39501 16.3287C2.39052 16.1737 2.4691 16.028 2.60116 15.9465L13.7222 8.61626L4.38562 14.0069C4.18339 14.1304 3.91946 14.0686 3.79314 13.8681C3.66683 13.6676 3.72498 13.4028 3.92369 13.2737L12.6658 7.30759L6.47516 10.8817C6.27735 10.996 6.0248 10.9371 5.89798 10.7471C5.77116 10.5571 5.81362 10.3012 5.99502 10.1624L10.7938 6.49986H10.7877C10.5916 6.49985 10.4199 6.36812 10.3691 6.17868C10.3184 5.98924 10.4012 5.78933 10.571 5.69126L15.8612 2.63626C16.0588 2.52442 16.3093 2.58414 16.4352 2.77313C16.5611 2.96212 16.5198 3.21626 16.3404 3.35559L11.8884 6.75986L22.1878 0.807592C22.3892 0.692455 22.6456 0.756385 22.7694 0.952614C22.8932 1.14884 22.8404 1.40775 22.6498 1.53993L13.9112 7.50692L25.9934 0.531125C26.197 0.405241 26.4642 0.468294 26.5901 0.671959C26.7159 0.875623 26.6529 1.14277 26.4492 1.26866L15.3273 8.59719L28.953 0.730459C29.1566 0.616681 29.4137 0.684386 29.5348 0.883662C29.6559 1.08294 29.5976 1.34232 29.4028 1.47059L18.7749 8.25312L31.1024 1.13779C31.3057 1.02912 31.5585 1.09868 31.6776 1.29606C31.7967 1.49344 31.7405 1.74954 31.5496 1.87879L20.3592 8.94386L33.0472 1.61879C33.2518 1.50077 33.5133 1.56847 33.635 1.77099C33.7567 1.9735 33.6938 2.23619 33.4935 2.36153L23.038 8.88319L34.6514 2.17693C34.8554 2.06032 35.1152 2.12761 35.237 2.32861C35.3588 2.52962 35.2981 2.79106 35.1003 2.91793L19.0947 13.0579L36.5416 2.98466C36.7471 2.86189 37.0133 2.92901 37.1361 3.13459C37.2589 3.34017 37.1917 3.60635 36.9862 3.72913L26.7222 10.0532L37.8416 3.63986C38.0462 3.52183 38.3077 3.58953 38.4294 3.79205C38.5511 3.99457 38.4882 4.25725 38.2879 4.38259L22.8855 13.9827L39.2932 4.50653C39.498 4.39331 39.7557 4.46311 39.8753 4.66421C39.9949 4.86531 39.9333 5.12507 39.7361 5.25099L30.1014 11.1521L40.3584 5.23019C40.5639 5.10742 40.8301 5.17455 40.9529 5.38013C41.0757 5.5857 41.0085 5.85189 40.803 5.97466L27.2682 14.3129L41.5145 6.08819C41.7198 5.96518 41.986 6.03192 42.109 6.23726C42.232 6.4426 42.1653 6.70878 41.96 6.83179L24.1933 17.8818L42.74 7.17153C42.9458 7.04923 43.2118 7.11694 43.3341 7.32276C43.4563 7.52858 43.3886 7.79456 43.1828 7.91686L31.0842 15.3217L43.6872 8.04166C43.8928 7.91889 44.159 7.98601 44.2818 8.19159C44.4045 8.39717 44.3374 8.66335 44.1318 8.78612L27.9468 18.7693L44.6258 9.13972C44.8305 9.0217 45.092 9.0894 45.2137 9.29192C45.3354 9.49444 45.2724 9.75712 45.0722 9.88246L25.1276 22.3044L45.7204 10.4155C45.9253 10.304 46.1816 10.3747 46.3004 10.5754C46.4191 10.7761 46.3578 11.0348 46.1616 11.1608L39.0306 15.4785L46.3358 11.2613C46.5413 11.1388 46.8073 11.2061 46.9299 11.4117C47.0524 11.6173 46.9851 11.8833 46.7795 12.0058L30.4931 22.0262L47.075 12.453C47.2797 12.335 47.5412 12.4027 47.6629 12.6052C47.7846 12.8077 47.7216 13.0704 47.5214 13.1957L26.568 26.2677L47.9746 13.9064C48.179 13.7972 48.4332 13.8681 48.5515 14.0673C48.6698 14.2666 48.6104 14.5237 48.4166 14.6509L36.8614 21.6943L48.4747 14.9923C48.6792 14.8845 48.9323 14.9562 49.0499 15.1553C49.1675 15.3543 49.1081 15.6106 48.915 15.7377L44.9378 18.1375L48.8491 15.8789C49.0549 15.7566 49.3209 15.8243 49.4432 16.0302C49.5655 16.236 49.4978 16.502 49.292 16.6243L35.486 25.0803L49.3526 17.0741C49.558 16.951 49.8241 17.0178 49.9472 17.2231C50.0702 17.4285 50.0034 17.6946 49.7981 17.8177L31.7472 28.9977L49.8267 18.5639C50.0304 18.4535 50.2849 18.5229 50.4044 18.7215C50.5239 18.92 50.466 19.1774 50.273 19.3057L30.4116 31.7199L50.247 20.2651C50.4505 20.1578 50.7023 20.2282 50.8207 20.4253C50.9391 20.6225 50.8828 20.8779 50.6925 21.007L31.8078 32.8049L50.5954 21.9569C50.7998 21.8476 51.054 21.9185 51.1723 22.1178C51.2906 22.3171 51.2312 22.5742 51.0374 22.7013L43.1915 27.4801L50.6916 23.1468C50.8958 23.0343 51.1524 23.1036 51.2723 23.3035C51.3922 23.5034 51.3325 23.7623 51.1371 23.8895L35.6636 33.5078L50.8225 24.7545C51.0268 24.6437 51.2821 24.7138 51.4012 24.9133C51.5202 25.1129 51.4607 25.3709 51.2662 25.4981L38.417 33.4532L50.8485 26.2737C50.9813 26.194 51.1466 26.1912 51.2821 26.2664C51.4175 26.3415 51.5026 26.4833 51.5052 26.6382C51.5079 26.7931 51.4277 26.9376 51.2948 27.0173L37.9178 35.3425L50.7358 27.9429C50.9412 27.8259 51.2025 27.8951 51.3231 28.0984C51.4437 28.3017 51.379 28.5642 51.1778 28.6883L48.3109 30.4346L50.6509 29.0835C50.8556 28.9681 51.1149 29.037 51.2355 29.2386C51.3561 29.4403 51.294 29.7013 51.0955 29.8271L43.3822 34.5842L50.3441 30.5655C50.5471 30.4595 50.7976 30.5299 50.9157 30.7261C51.0339 30.9222 50.979 31.1765 50.7904 31.3065L39.5498 38.3759L49.9749 32.3569C50.1785 32.2449 50.4343 32.3135 50.5545 32.5123C50.6748 32.7112 50.6167 32.9695 50.423 33.0979L40.9945 39.038L49.3292 34.2263C49.5334 34.1013 49.8001 34.1656 49.9251 34.3697C50.05 34.5738 49.9858 34.8406 49.7816 34.9655L38.9951 41.9301L48.3551 36.5281C48.5585 36.4098 48.8191 36.4755 48.9422 36.676C49.0653 36.8766 49.0059 37.1387 48.8084 37.2665L40.5958 42.6165L47.0768 38.8751C47.2804 38.7492 47.5476 38.8122 47.6735 39.0159C47.7993 39.2196 47.7363 39.4867 47.5326 39.6126L42.2945 43.0602L45.392 41.2714C45.5899 41.1587 45.8413 41.2185 45.9673 41.4082C46.0933 41.5979 46.0509 41.8528 45.8704 41.9916L41.2406 45.4999C41.4314 45.5117 41.5918 45.6472 41.6355 45.8332C41.6792 46.0193 41.5959 46.212 41.4304 46.3076L36.1438 49.3617C35.9458 49.4744 35.6945 49.4146 35.5684 49.2249C35.4424 49.0352 35.4848 48.7803 35.6654 48.6415L39.8314 45.4834L29.9627 51.18C29.7593 51.3018 29.4957 51.2375 29.3713 51.0357C29.2468 50.834 29.3076 50.5696 29.5077 50.4425L34.7545 46.9905L27.0949 51.4105C27.0282 51.4498 26.9522 51.4704 26.8748 51.4703Z" fill="#EC221F"/>
<path d="M31.4184 50.8031C43.1654 48.1969 51.5839 37.8631 51.7617 25.8318C51.623 14.2197 43.6921 4.15274 32.435 1.29993C22.9389 -0.949471 12.9748 2.19923 6.49567 9.49686C-1.04773 18.2307 -1.77911 30.9441 4.71293 40.4854C10.7196 48.9953 21.2504 53.0639 31.4184 50.8031ZM29.2075 1.4178C41.5523 3.19793 50.2155 13.9533 50.5067 26.1681C50.1601 40.7029 37.7069 52.734 22.7907 50.5821C10.5857 48.666 1.56854 38.1861 1.495 25.8318C1.50193 11.2666 14.5747 -0.693403 29.2075 1.4178Z" fill="#303030"/>
<path d="M25.317 26.1654L14.1665 37.3159C13.9134 37.569 15.086 37.433 15.3018 37.2171L25.8353 26.6837C29.4545 30.3017 33.0734 33.9206 36.692 37.5404C37.0829 37.9313 38.2728 37.4225 37.8429 36.9927L26.6846 25.8343L37.8351 14.6838C38.0882 14.4307 36.9156 14.5668 36.6998 14.7826L26.1663 25.3161L15.3096 14.4593C14.9187 14.0685 13.7288 14.5772 14.1587 15.0071L25.317 26.1654Z" fill="#303030"/>
</g>
<defs>
<clipPath id="clip0_1_785">
<rect width="52" height="52" fill="white"/>
</clipPath>
</defs>
</svg>
