<svg width="48" height="48" viewBox="0 0 48 48" fill="none" xmlns="http://www.w3.org/2000/svg">
<g clip-path="url(#clip0_2015_1016)">
<path d="M48 33.9375L48 14.0625C48 6.29625 41.7037 -2.75218e-07 33.9375 -6.14691e-07L14.0625 -1.48346e-06C6.29625 -1.82293e-06 -2.75218e-07 6.29625 -6.14691e-07 14.0625L-1.48346e-06 33.9375C-1.82293e-06 41.7037 6.29625 48 14.0625 48L33.9375 48C41.7037 48 48 41.7038 48 33.9375ZM14.0625 47.0625C6.825 47.0625 0.937498 41.175 0.937499 33.9375L0.937499 14.0625C0.9375 6.825 6.825 0.937498 14.0625 0.937499L33.9375 0.937499C41.175 0.9375 47.0625 6.825 47.0625 14.0625L47.0625 33.9375C47.0625 41.175 41.175 47.0625 33.9375 47.0625L14.0625 47.0625ZM29.0006 23.6391L29.0006 31.6547C29.0006 33.4641 30.4725 34.9359 32.2819 34.9359C34.0912 34.9359 35.5631 33.4641 35.5631 31.6547L35.5631 15.7181C35.5631 13.9087 34.0912 12.4369 32.2819 12.4369L16.3444 12.4369C14.535 12.4369 13.0631 13.9087 13.0631 15.7181C13.0631 17.5275 14.535 18.9994 16.3444 18.9994L24.36 18.9994L13.3969 29.9625C12.7772 30.5822 12.4359 31.4062 12.4359 32.2828C12.4359 33.1594 12.7772 33.9834 13.3969 34.6031C14.0166 35.2228 14.8406 35.5641 15.7172 35.5641C16.5937 35.5641 17.4178 35.2228 18.0375 34.6031L29.0006 23.64L29.0006 23.6391ZM14.0606 33.9394C13.1456 33.0244 13.1456 31.5403 14.0606 30.6244L26.6241 18.0619L16.3453 18.0619C15.0506 18.0619 14.0016 17.0128 14.0016 15.7181C14.0016 14.4234 15.0506 13.3744 16.3453 13.3744L32.2819 13.3744C33.5766 13.3744 34.6256 14.4234 34.6256 15.7181L34.6256 31.6556C34.6256 32.9503 33.5766 33.9994 32.2819 33.9994C30.9872 33.9994 29.9381 32.9503 29.9381 31.6556L29.9381 21.3769L17.3747 33.9403C16.4597 34.8553 14.9756 34.8553 14.0597 33.9403L14.0606 33.9394Z" fill="white"/>
</g>
<defs>
<clipPath id="clip0_2015_1016">
<rect width="48" height="48" fill="white" transform="translate(48) rotate(90)"/>
</clipPath>
</defs>
</svg>
