<svg width="32" height="32" viewBox="0 0 32 32" fill="none" xmlns="http://www.w3.org/2000/svg">
<g clip-path="url(#clip0_1_742)">
<path d="M23.5625 0H8.4375C3.7775 0 0 3.7775 0 8.4375V23.5625C0 28.2225 3.7775 32 8.4375 32H23.5625C28.2225 32 32 28.2225 32 23.5625V8.4375C32 3.7775 28.2225 0 23.5625 0ZM16.2787 23.0269H12.5988L10.0837 17.9869H8.22437V23.0269H4.78937V8.7775H10.3969C12.0869 8.7775 13.4081 9.1525 14.3606 9.90187C15.3131 10.6512 15.7894 11.7106 15.7894 13.0794C15.7894 14.07 15.5887 14.8913 15.1875 15.5431C14.7863 16.195 14.1581 16.7231 13.3038 17.1269L16.2787 22.8806V23.0275V23.0269ZM27.2106 23.0269H24.1181L24.02 21.8819C23.3219 22.7756 22.3787 23.2225 21.1919 23.2225C20.005 23.2225 19.1512 22.885 18.5544 22.2094C17.9575 21.5344 17.6588 20.5637 17.6588 19.2981V12.4375H20.9569V19.3175C20.9569 20.2244 21.3975 20.6781 22.2781 20.6781C23.035 20.6781 23.5731 20.4075 23.8931 19.8656V12.4375H27.2106V23.0269ZM11.865 11.945C12.1975 12.295 12.3644 12.7775 12.3644 13.3919C12.3644 14.0063 12.1994 14.4856 11.87 14.8294C11.5406 15.1731 11.0494 15.3444 10.3969 15.3444H8.22437V11.42H10.3969C11.0425 11.42 11.5319 11.595 11.865 11.945Z" fill="white"/>
</g>
<defs>
<clipPath id="clip0_1_742">
<rect width="32" height="32" fill="white"/>
</clipPath>
</defs>
</svg>
