<svg width="32" height="32" viewBox="0 0 32 32" fill="none" xmlns="http://www.w3.org/2000/svg">
<g clip-path="url(#clip0_1_732)">
<path d="M30.755 15.1334C30.7663 15.1334 30.7768 15.1334 30.7881 15.1334C31.1332 15.1334 31.4612 14.9864 31.6915 14.7295C31.9291 14.4638 32.0382 14.1068 31.9881 13.7538C30.9942 6.63464 25.3242 0.983091 18.2005 0.0106065C17.8482 -0.035433 17.4984 0.0695694 17.2341 0.302998C16.9699 0.536426 16.8204 0.874857 16.8245 1.22702C16.9683 12.7361 19.0514 14.8159 30.755 15.1334ZM30.7558 16.8651C19.0498 17.1761 16.9667 19.2559 16.8245 30.7731C16.8204 31.1261 16.9699 31.4629 17.2341 31.6963C17.4563 31.8934 17.7432 32 18.0365 32C18.0907 32 18.1456 31.9968 18.2005 31.9887C25.3258 31.0162 30.9958 25.3638 31.9881 18.2439C32.0382 17.8909 31.9291 17.5347 31.6915 17.269C31.4531 17.0032 31.1089 16.8473 30.7558 16.8651ZM1.24231 16.8587C0.888393 16.8409 0.544978 16.9968 0.308224 17.2625C0.0706614 17.5282 -0.0376154 17.8844 0.0116748 18.2366C1.00152 25.3606 6.6715 31.0154 13.8 31.9887C13.8549 31.996 13.9099 32 13.964 32C14.2573 32 14.5442 31.8934 14.7664 31.6963C15.0306 31.4629 15.1801 31.1261 15.1761 30.7731C15.0339 19.2374 12.9499 17.1567 1.24231 16.8587ZM13.8 0.0114142C6.6715 0.984706 1.00152 6.63949 0.0116748 13.7635C-0.0376154 14.1165 0.0706614 14.4719 0.308224 14.7376C0.537706 14.9953 0.866576 15.1415 1.21161 15.1415C1.22211 15.1415 1.23181 15.1415 1.24231 15.1415C12.9499 14.8434 15.0339 12.7627 15.1761 1.22702C15.1801 0.87405 15.0306 0.537234 14.7664 0.303806C14.503 0.0711848 14.1547 -0.0346253 13.8 0.0114142Z" fill="white"/>
</g>
<defs>
<clipPath id="clip0_1_732">
<rect width="32" height="32" fill="white"/>
</clipPath>
</defs>
</svg>
