<svg width="24" height="24" viewBox="0 0 24 24" fill="none" xmlns="http://www.w3.org/2000/svg">
<path fill-rule="evenodd" clip-rule="evenodd" d="M12.3989 23.8533C14.3184 22.8874 22.5205 18.3043 22.5205 10.52C22.5205 4.70998 17.8106 0 12.0005 0C6.19045 0 1.48047 4.70998 1.48047 10.52C1.48047 18.3043 9.68263 22.8874 11.6021 23.8533C11.8566 23.9814 12.1445 23.9814 12.3989 23.8533ZM12.0008 15.0289C14.4908 15.0289 16.5094 13.0103 16.5094 10.5203C16.5094 8.03028 14.4908 6.01172 12.0008 6.01172C9.51075 6.01172 7.49219 8.03028 7.49219 10.5203C7.49219 13.0103 9.51075 15.0289 12.0008 15.0289Z" fill="white"/>
</svg>
