<svg width="25" height="24" viewBox="0 0 25 24" fill="none" xmlns="http://www.w3.org/2000/svg">
<g clip-path="url(#clip0_1_1317)">
<path d="M20.984 3.51344C16.297 -1.17214 8.69902 -1.17101 4.01344 3.51602C-0.672139 8.20305 -0.671013 15.801 4.01602 20.4866C8.70305 25.1722 16.301 25.171 20.9866 20.484C23.2369 18.233 24.5007 15.1803 24.5 11.9974C24.4994 8.8151 23.2346 5.76335 20.984 3.51344ZM18.6736 16.7159C18.6731 16.7164 18.6726 16.717 18.672 16.7175V16.7135L18.064 17.3175C17.2777 18.1137 16.1325 18.4413 15.044 18.1815C13.9473 17.8879 12.9048 17.4207 11.956 16.7975C11.0745 16.2341 10.2575 15.5755 9.51999 14.8335C8.84138 14.1598 8.23172 13.4201 7.69997 12.6255C7.11835 11.7704 6.65799 10.8389 6.33197 9.85746C5.95824 8.70452 6.26794 7.43941 7.13199 6.58947L7.84397 5.87749C8.04192 5.67864 8.36358 5.67794 8.56238 5.87589C8.56289 5.87641 8.56346 5.87692 8.56397 5.87749L10.812 8.12547C11.0108 8.32342 11.0115 8.64508 10.8135 8.84388C10.813 8.84439 10.8125 8.84491 10.812 8.84547L9.49196 10.1655C9.11321 10.5401 9.06558 11.1354 9.37997 11.5655C9.85739 12.2207 10.3857 12.8373 10.96 13.4095C11.6003 14.0525 12.2963 14.6375 13.04 15.1575C13.4697 15.4572 14.0522 15.4067 14.424 15.0375L15.6999 13.7415C15.8979 13.5427 16.2195 13.542 16.4183 13.7399C16.4189 13.7404 16.4194 13.741 16.4199 13.7415L18.672 15.9975C18.8708 16.1954 18.8715 16.517 18.6736 16.7159Z" fill="#434343"/>
</g>
<defs>
<clipPath id="clip0_1_1317">
<rect width="24" height="24" fill="white" transform="translate(0.5)"/>
</clipPath>
</defs>
</svg>
