<svg width="64" height="64" viewBox="0 0 64 64" fill="none" xmlns="http://www.w3.org/2000/svg">
<g clip-path="url(#clip0_1_904)">
<path d="M62.5363 17.0531C60.9752 8.72525 55.4558 3.20075 46.9944 1.4975C44.7576 1.04725 38.8292 0 32.1033 0H31.9749C25.4543 0.013375 19.372 1.05063 17.0598 1.496C8.6079 3.12388 3.08553 8.64875 1.51003 17.0531C0.948526 20.0481 0.0059014 25.9766 2.64034e-05 32.03C-0.0060986 38.542 1.05503 44.6583 1.51153 46.9856C3.15128 55.3455 8.67103 60.8673 17.054 62.5336C19.2712 62.9746 25.1634 64 31.9769 64C39.1522 64 45.2855 62.8774 46.9943 62.5331C55.4557 60.83 60.9752 55.3056 62.5362 46.9777C63.0828 44.0611 64 38.2368 64 32.0001C64.0001 25.7903 63.0829 19.97 62.5363 17.0531ZM40.1279 44.009C34.609 47.7272 28.4752 50.0371 24.1204 50.0371C24.1195 50.0371 24.1193 50.0371 24.1187 50.0371C22.4948 50.0369 21.1277 49.7185 20.0552 49.0909C15.7195 46.554 14.8073 38.5935 14.6164 35.2887C14.1745 27.6445 15.8689 18.2952 19.962 15.2165C21.0682 14.3845 22.5505 13.9628 24.368 13.9628C28.6394 13.9628 34.7113 16.3388 40.2137 20.1634C46.0002 24.1855 49.4547 28.6562 49.4547 32.1227C49.4545 35.6306 45.9678 40.0741 40.1279 44.009Z" fill="white"/>
<path d="M39.1068 21.756C33.9908 18.1998 28.2054 15.9022 24.3679 15.9022C22.9804 15.9022 21.8901 16.193 21.1276 16.7666C18.0466 19.084 16.0796 26.9987 16.5524 35.1768C16.9073 41.3167 18.6248 46.0071 21.0345 47.4171C21.8061 47.8686 22.8439 48.0975 24.1189 48.0977H24.1204C28.0494 48.0977 33.907 45.8615 39.044 42.4005C44.2691 38.8798 47.5151 34.9417 47.5151 32.1227C47.5151 29.3335 44.2934 25.3611 39.1068 21.756Z" fill="white"/>
</g>
<defs>
<clipPath id="clip0_1_904">
<rect width="64" height="64" fill="white"/>
</clipPath>
</defs>
</svg>
