<svg width="20" height="20" viewBox="0 0 20 20" fill="none" xmlns="http://www.w3.org/2000/svg">
<path d="M15 15C13.6212 15 12.5 16.1212 12.5 17.5C12.5 18.8788 13.6212 20 15 20C16.3788 20 17.5 18.8788 17.5 17.5C17.5 16.1212 16.3788 15 15 15ZM15 18.75C14.3109 18.75 13.75 18.1891 13.75 17.5C13.75 16.8109 14.3109 16.25 15 16.25C15.6891 16.25 16.25 16.8109 16.25 17.5C16.25 18.1891 15.6891 18.75 15 18.75Z" fill="white"/>
<path d="M7.5 15C6.12121 15 5 16.1212 5 17.5C5 18.8788 6.12122 20 7.5 20C8.87879 20 10 18.8788 10 17.5C10 16.1212 8.87878 15 7.5 15ZM7.5 18.75C6.81091 18.75 6.25 18.1891 6.25 17.5C6.25 16.8109 6.81091 16.25 7.5 16.25C8.18909 16.25 8.75 16.8109 8.75 17.5C8.75 18.1891 8.18909 18.75 7.5 18.75Z" fill="white"/>
<path d="M19.8785 2.75451C19.7607 2.5946 19.5739 2.49999 19.3749 2.49999H4.13757L3.73779 0.502319C3.6792 0.210571 3.42285 0 3.125 0H0V1.25H2.61291L5.0122 13.2477C5.07079 13.5394 5.32714 13.75 5.62499 13.75H16.25C16.5234 13.75 16.7651 13.5724 16.8463 13.3111L19.9713 3.31115C20.0311 3.12194 19.9963 2.91503 19.8785 2.75451ZM15.7903 12.5H6.13702L4.38715 3.75H18.5248L15.7903 12.5Z" fill="white"/>
</svg>
