<svg width="24" height="24" viewBox="0 0 24 24" fill="none" xmlns="http://www.w3.org/2000/svg">
<path d="M19.2727 12.8889L6.48308 12.8889L8.87788 15.816C9.16191 16.1631 9.16191 16.7259 8.87788 17.0731C8.59391 17.4201 8.1334 17.4201 7.84938 17.0731L4.21302 12.6286C3.92899 12.2815 3.929 11.7187 4.21302 11.3715L7.84938 6.92709C7.99144 6.75352 8.17752 6.66671 8.36366 6.66671C8.54979 6.66671 8.73592 6.75352 8.87789 6.92709C9.16191 7.27418 9.16191 7.83702 8.87789 8.18416L6.48308 11.1112L19.2727 11.1112C19.6744 11.1112 20 11.5091 20 12.0001C20 12.491 19.6744 12.8889 19.2727 12.8889Z" fill="#434343"/>
</svg>
