<svg width="24" height="24" viewBox="0 0 24 24" fill="none" xmlns="http://www.w3.org/2000/svg">
<path d="M4.72727 12.8889L17.5169 12.8889L15.1221 15.816C14.8381 16.1631 14.8381 16.7259 15.1221 17.0731C15.4061 17.4201 15.8666 17.4201 16.1506 17.0731L19.787 12.6286C20.071 12.2815 20.071 11.7187 19.787 11.3715L16.1506 6.92709C16.0086 6.75352 15.8225 6.66671 15.6363 6.66671C15.4502 6.66671 15.2641 6.75352 15.1221 6.92709C14.8381 7.27418 14.8381 7.83702 15.1221 8.18416L17.5169 11.1112L4.72727 11.1112C4.32562 11.1112 4 11.5091 4 12.0001C4 12.491 4.32562 12.8889 4.72727 12.8889Z" fill="#434343"/>
</svg>
