<svg width="24" height="24" viewBox="0 0 24 24" fill="none" xmlns="http://www.w3.org/2000/svg">
<g clip-path="url(#clip0_1_992)">
<path d="M14.2161 11.1809L11.0544 9.27779C10.9093 9.19058 10.7437 9.14345 10.5744 9.1412C10.4052 9.13895 10.2384 9.18167 10.091 9.26499C9.94367 9.34832 9.82109 9.46926 9.73578 9.61546C9.65048 9.76167 9.60551 9.92789 9.60548 10.0972V13.9025C9.60471 14.0721 9.64918 14.2388 9.73431 14.3854C9.81944 14.5321 9.94215 14.6534 10.0898 14.7368C10.2374 14.8203 10.4046 14.8628 10.5742 14.8601C10.7437 14.8574 10.9095 14.8095 11.0544 14.7214L14.2161 12.8187C14.3573 12.7337 14.4742 12.6137 14.5553 12.4702C14.6364 12.3267 14.679 12.1646 14.679 11.9998C14.679 11.835 14.6364 11.673 14.5553 11.5295C14.4742 11.386 14.3573 11.2659 14.2161 11.1809Z" fill="white"/>
<path d="M12 0C5.37281 0 0 5.37281 0 12C0 18.6272 5.37281 24 12 24C18.6272 24 24 18.6272 24 12C24 5.37281 18.6272 0 12 0ZM19.2656 14.7619C19.2657 15.0815 19.2028 15.398 19.0805 15.6933C18.9582 15.9886 18.7789 16.2569 18.5529 16.4829C18.3269 16.7089 18.0586 16.8882 17.7633 17.0105C17.468 17.1328 17.1515 17.1957 16.8319 17.1956H7.16813C6.8485 17.1957 6.532 17.1328 6.2367 17.0105C5.94139 16.8882 5.67307 16.7089 5.44707 16.4829C5.22106 16.2569 5.04179 15.9886 4.91951 15.6933C4.79722 15.398 4.73431 15.0815 4.73438 14.7619V9.23812C4.73431 8.9185 4.79722 8.602 4.91951 8.3067C5.04179 8.01139 5.22106 7.74307 5.44707 7.51707C5.67307 7.29106 5.94139 7.11179 6.2367 6.98951C6.532 6.86722 6.8485 6.80431 7.16813 6.80438H16.8319C17.1515 6.80431 17.468 6.86722 17.7633 6.98951C18.0586 7.11179 18.3269 7.29106 18.5529 7.51707C18.7789 7.74307 18.9582 8.01139 19.0805 8.3067C19.2028 8.602 19.2657 8.9185 19.2656 9.23812V14.7619Z" fill="white"/>
</g>
<defs>
<clipPath id="clip0_1_992">
<rect width="24" height="24" fill="white"/>
</clipPath>
</defs>
</svg>
