<svg width="24" height="24" viewBox="0 0 24 24" fill="none" xmlns="http://www.w3.org/2000/svg">
<path d="M19.5141 4.48324C15.3628 0.333158 8.63308 0.334154 4.483 4.48553C0.332914 8.6369 0.33391 15.3665 4.48528 19.5166C8.63665 23.6667 15.3663 23.6657 19.5164 19.5143C21.5095 17.5206 22.6289 14.8167 22.6283 11.9976C22.6277 9.179 21.5075 6.47602 19.5141 4.48324ZM17.4677 16.1768C17.4673 16.1773 17.4668 16.1778 17.4663 16.1782V16.1747L16.9278 16.7097C16.2313 17.4149 15.217 17.7051 14.2529 17.4749C13.2816 17.2149 12.3582 16.8011 11.5178 16.2491C10.737 15.7501 10.0135 15.1668 9.36023 14.5096C8.75917 13.9129 8.21919 13.2578 7.74821 12.5539C7.23306 11.7965 6.82531 10.9715 6.53656 10.1022C6.20553 9.08106 6.47984 7.96053 7.24514 7.20773L7.87576 6.57711C8.05109 6.40099 8.33598 6.40037 8.51206 6.5757C8.51252 6.57616 8.51301 6.57661 8.51347 6.57711L10.5045 8.56819C10.6807 8.74352 10.6813 9.02841 10.506 9.20449C10.5055 9.20495 10.505 9.2054 10.5045 9.2059L9.3354 10.375C8.99994 10.7069 8.95775 11.2341 9.23621 11.6151C9.65907 12.1954 10.127 12.7415 10.6357 13.2483C11.2027 13.8179 11.8192 14.336 12.4779 14.7966C12.8585 15.062 13.3745 15.0173 13.7037 14.6903L14.8339 13.5424C15.0092 13.3663 15.2941 13.3657 15.4702 13.541C15.4707 13.5414 15.4711 13.5419 15.4716 13.5424L17.4663 15.5406C17.6424 15.7159 17.643 16.0007 17.4677 16.1768Z" fill="white"/>
</svg>
