<svg width="32" height="32" viewBox="0 0 32 32" fill="none" xmlns="http://www.w3.org/2000/svg">
<path d="M16.0364 0H15.9636C7.14712 0 0 7.14924 0 15.9683V16.0412C0 24.8602 7.14712 32.0094 15.9636 32.0094H16.0364C24.8529 32.0094 32 24.8602 32 16.0412V15.9683C32 7.14924 24.8529 0 16.0364 0Z" fill="white"/>
<path d="M6.06088 15.4591C6.10573 15.4366 6.15059 15.4153 6.19432 15.3951C6.95443 15.043 7.72464 14.7133 8.49373 14.3836C8.53521 14.3836 8.6047 14.3354 8.64394 14.3197C8.70336 14.2939 8.76279 14.2692 8.82221 14.2434C8.93656 14.1941 9.05092 14.1459 9.16415 14.0965C9.39286 13.9989 9.62043 13.9014 9.84914 13.8038L11.218 13.2173C12.1306 12.827 13.0443 12.4356 13.9569 12.0454C14.8695 11.6551 15.7832 11.2637 16.6958 10.8735C17.6084 10.4832 18.5221 10.0918 19.4347 9.70156C20.3473 9.3113 21.261 8.91991 22.1736 8.52965C22.3765 8.44218 22.5962 8.31209 22.8137 8.27396C22.9965 8.24144 23.1747 8.17864 23.3586 8.14387C23.7073 8.07771 24.0918 8.0508 24.4259 8.19546C24.5414 8.24593 24.6479 8.31658 24.7364 8.40517C25.1602 8.82459 25.1008 9.51316 25.0111 10.103C24.3866 14.2143 23.7622 18.3266 23.1366 22.4378C23.0514 23.0019 22.9348 23.621 22.4897 23.9776C22.113 24.2792 21.5771 24.3129 21.1119 24.185C20.6466 24.0561 20.2363 23.7858 19.8338 23.52C18.1645 22.4143 16.494 21.3085 14.8247 20.2028C14.4278 19.9404 13.9861 19.5972 13.9906 19.1206C13.9928 18.8335 14.1643 18.5778 14.3392 18.3502C15.7899 16.4572 17.8831 15.1563 19.4403 13.3507C19.66 13.0962 19.8327 12.6364 19.5311 12.4895C19.3517 12.402 19.1454 12.5209 18.9817 12.6341C16.9234 14.064 14.8661 15.495 12.8078 16.9248C12.1362 17.3913 11.4322 17.8713 10.6227 17.9857C9.89848 18.0889 9.16976 17.887 8.46907 17.6806C7.8816 17.5079 7.29524 17.3308 6.71114 17.148C6.40059 17.0515 6.07995 16.9472 5.84003 16.7285C5.60011 16.5099 5.46223 16.142 5.60685 15.8504C5.69766 15.6677 5.87368 15.5521 6.05867 15.4579L6.06088 15.4591Z" fill="#3C7582"/>
</svg>
