<svg width="64" height="64" viewBox="0 0 64 64" fill="none" xmlns="http://www.w3.org/2000/svg">
<g clip-path="url(#clip0_1_1025)">
<path d="M64 45.25L64 18.75C64 8.395 55.605 -3.66957e-07 45.25 -8.19589e-07L18.75 -1.97794e-06C8.395 -2.43057e-06 -3.66957e-07 8.395 -8.19589e-07 18.75L-1.97794e-06 45.25C-2.43057e-06 55.605 8.395 64 18.75 64L45.25 64C55.605 64 64 55.605 64 45.25ZM18.75 62.75C9.1 62.75 1.25 54.9 1.25 45.25L1.25 18.75C1.25 9.1 9.1 1.25 18.75 1.25L45.25 1.25C54.9 1.25 62.75 9.1 62.75 18.75L62.75 45.25C62.75 54.9 54.9 62.75 45.25 62.75L18.75 62.75ZM38.6675 31.5187L38.6675 42.2062C38.6675 44.6187 40.63 46.5812 43.0425 46.5812C45.455 46.5812 47.4175 44.6187 47.4175 42.2062L47.4175 20.9575C47.4175 18.545 45.455 16.5825 43.0425 16.5825L21.7925 16.5825C19.38 16.5825 17.4175 18.545 17.4175 20.9575C17.4175 23.37 19.38 25.3325 21.7925 25.3325L32.48 25.3325L17.8625 39.95C17.0362 40.7762 16.5812 41.875 16.5812 43.0437C16.5812 44.2125 17.0362 45.3113 17.8625 46.1375C18.6887 46.9637 19.7875 47.4187 20.9562 47.4187C22.125 47.4187 23.2237 46.9637 24.05 46.1375L38.6675 31.52L38.6675 31.5187ZM18.7475 45.2525C17.5275 44.0325 17.5275 42.0537 18.7475 40.8325L35.4987 24.0825L21.7937 24.0825C20.0675 24.0825 18.6687 22.6837 18.6687 20.9575C18.6687 19.2312 20.0675 17.8325 21.7937 17.8325L43.0425 17.8325C44.7687 17.8325 46.1675 19.2312 46.1675 20.9575L46.1675 42.2075C46.1675 43.9337 44.7687 45.3325 43.0425 45.3325C41.3162 45.3325 39.9175 43.9337 39.9175 42.2075L39.9175 28.5025L23.1662 45.2537C21.9462 46.4737 19.9675 46.4737 18.7462 45.2537L18.7475 45.2525Z" fill="#715351"/>
</g>
<defs>
<clipPath id="clip0_1_1025">
<rect width="64" height="64" fill="white" transform="translate(64) rotate(90)"/>
</clipPath>
</defs>
</svg>
