<svg width="24" height="24" viewBox="0 0 24 24" fill="none" xmlns="http://www.w3.org/2000/svg">
<path d="M12 10.75C14.4162 10.75 16.375 8.79125 16.375 6.375C16.375 3.95876 14.4162 2 12 2C9.58376 2 7.625 3.95876 7.625 6.375C7.625 8.79125 9.58376 10.75 12 10.75Z" fill="white"/>
<path d="M20.0935 18.7193C19.7626 16.8202 18.7663 15.101 17.283 13.8697C15.7998 12.6384 13.9266 11.9754 11.999 11.9997C10.0714 11.9754 8.1982 12.6384 6.71497 13.8697C5.23173 15.101 4.23541 16.8202 3.90451 18.7193C3.84613 19.1185 3.87458 19.5257 3.98792 19.9129C4.10126 20.3001 4.29682 20.6583 4.56125 20.963C4.84603 21.2905 5.19818 21.5527 5.59363 21.7316C5.98907 21.9106 6.41848 22.002 6.85251 21.9997H17.1455C17.5795 22.002 18.0089 21.9106 18.4044 21.7316C18.7998 21.5527 19.152 21.2905 19.4367 20.963C19.7012 20.6583 19.8967 20.3001 20.0101 19.9129C20.1234 19.5257 20.1519 19.1185 20.0935 18.7193Z" fill="white"/>
</svg>
