<svg width="25" height="24" viewBox="0 0 25 24" fill="none" xmlns="http://www.w3.org/2000/svg">
<g clip-path="url(#clip0_1_1315)">
<path d="M12.5 0C5.87258 0 0.5 5.37258 0.5 12C0.5 18.6274 5.87258 24 12.5 24C19.1274 24 24.5 18.6274 24.5 12C24.5 5.37258 19.1274 0 12.5 0ZM18.892 16.0734H17.3693C17.2044 16.0736 17.0415 16.0366 16.8929 15.9652C16.7442 15.8938 16.6136 15.7898 16.5106 15.6609C16.054 15.0876 15.1543 14.071 14.2098 13.6344C14.1551 13.6088 14.0948 13.5974 14.0345 13.6012C13.9742 13.6051 13.9159 13.6241 13.8649 13.6564C13.8139 13.6888 13.7718 13.7335 13.7427 13.7864C13.7135 13.8393 13.6982 13.8987 13.6981 13.9591V15.4651C13.6981 15.545 13.6824 15.6241 13.6518 15.6979C13.6213 15.7717 13.5765 15.8388 13.52 15.8953C13.4635 15.9517 13.3965 15.9966 13.3227 16.0271C13.2489 16.0577 13.1698 16.0734 13.0899 16.0734H12.3858C11.4702 16.0734 9.49831 15.516 7.92711 13.2272C6.58836 11.2772 5.99159 9.76598 5.64359 8.54067C5.62336 8.46886 5.62005 8.39333 5.63392 8.32002C5.64778 8.24671 5.67845 8.17761 5.72351 8.11814C5.76858 8.05868 5.82681 8.01047 5.89364 7.97729C5.96047 7.94412 6.03408 7.92688 6.10869 7.92694H7.64909C7.80278 7.92681 7.9524 7.97628 8.0757 8.06801C8.19901 8.15974 8.28941 8.28882 8.33347 8.43605C8.61992 9.39412 9.36186 11.4609 10.6733 12.4901C10.7133 12.5216 10.7614 12.5412 10.812 12.5467C10.8626 12.5522 10.9138 12.5434 10.9596 12.5212C11.0054 12.499 11.044 12.4643 11.0711 12.4212C11.0982 12.3781 11.1125 12.3282 11.1126 12.2773V9.8648C11.1126 9.38803 10.906 8.91103 10.5835 8.53823C10.537 8.48477 10.5069 8.41906 10.4967 8.34895C10.4866 8.27885 10.4968 8.20729 10.5262 8.14283C10.5555 8.07837 10.6028 8.02372 10.6624 7.9854C10.722 7.94708 10.7913 7.9267 10.8622 7.9267H13.2372C13.3595 7.9267 13.4767 7.97528 13.5632 8.06176C13.6497 8.14823 13.6983 8.26551 13.6983 8.38781V11.6374C13.6983 11.6845 13.7113 11.7306 13.7358 11.7708C13.7602 11.8109 13.7953 11.8436 13.8371 11.8652C13.8789 11.8867 13.9258 11.8964 13.9728 11.8931C14.0197 11.8897 14.0648 11.8736 14.1031 11.8463C14.5391 11.536 14.9124 11.0775 15.2558 10.5623C15.688 9.91406 16.2154 8.84259 16.48 8.28652C16.5312 8.17879 16.6119 8.08779 16.7127 8.02408C16.8136 7.96037 16.9304 7.92656 17.0497 7.92656H18.7297C18.7998 7.92653 18.8688 7.94442 18.9301 7.97853C18.9914 8.01263 19.043 8.06183 19.08 8.12145C19.1169 8.18108 19.1381 8.24915 19.1413 8.31923C19.1446 8.38931 19.13 8.45906 19.0987 8.52188C18.6748 9.37219 17.8491 10.9321 17.0721 11.8473C16.9609 11.9789 16.9064 12.1493 16.9207 12.321C16.9349 12.4927 17.0168 12.6518 17.1482 12.7632C17.6547 13.196 18.4453 13.996 19.2978 15.3286C19.3448 15.4016 19.3713 15.4858 19.3745 15.5726C19.3778 15.6593 19.3575 15.7453 19.316 15.8215C19.2745 15.8977 19.2132 15.9613 19.1386 16.0057C19.064 16.05 18.9788 16.0734 18.892 16.0734Z" fill="#434343"/>
</g>
<defs>
<clipPath id="clip0_1_1315">
<rect width="24" height="24" fill="white" transform="translate(0.5)"/>
</clipPath>
</defs>
</svg>
