<svg width="16" height="16" viewBox="0 0 16 16" fill="none" xmlns="http://www.w3.org/2000/svg">
<path d="M8.7 10.8H9.75C9.9433 10.8 10.1 10.9567 10.1 11.15C10.1 11.3433 9.9433 11.5 9.75 11.5H6.95C6.7567 11.5 6.6 11.3433 6.6 11.15C6.6 10.9567 6.7567 10.8 6.95 10.8H8V7.3H6.95C6.7567 7.3 6.6 7.1433 6.6 6.95C6.6 6.7567 6.7567 6.6 6.95 6.6H8.35C8.5433 6.6 8.7 6.7567 8.7 6.95V10.8ZM8 15C4.13401 15 1 11.866 1 8C1 4.13401 4.13401 1 8 1C11.866 1 15 4.13401 15 8C15 11.866 11.866 15 8 15ZM8 14.3C11.4794 14.3 14.3 11.4794 14.3 8C14.3 4.52061 11.4794 1.7 8 1.7C4.52061 1.7 1.7 4.52061 1.7 8C1.7 11.4794 4.52061 14.3 8 14.3ZM7.65 4.5H8.35C8.5433 4.5 8.7 4.6567 8.7 4.85V5.55C8.7 5.7433 8.5433 5.9 8.35 5.9H7.65C7.4567 5.9 7.3 5.7433 7.3 5.55V4.85C7.3 4.6567 7.4567 4.5 7.65 4.5Z" fill="#727272"/>
</svg>
