<svg width="25" height="24" viewBox="0 0 25 24" fill="none" xmlns="http://www.w3.org/2000/svg">
<g clip-path="url(#clip0_1_1309)">
<path d="M14.7161 11.1809L11.5544 9.27779C11.4093 9.19058 11.2437 9.14345 11.0744 9.1412C10.9052 9.13895 10.7384 9.18167 10.591 9.26499C10.4437 9.34832 10.3211 9.46926 10.2358 9.61546C10.1505 9.76167 10.1055 9.92789 10.1055 10.0972V13.9025C10.1047 14.0721 10.1492 14.2388 10.2343 14.3854C10.3194 14.5321 10.4421 14.6534 10.5898 14.7368C10.7374 14.8203 10.9046 14.8628 11.0742 14.8601C11.2437 14.8574 11.4095 14.8095 11.5544 14.7214L14.7161 12.8187C14.8573 12.7337 14.9742 12.6137 15.0553 12.4702C15.1364 12.3267 15.179 12.1646 15.179 11.9998C15.179 11.835 15.1364 11.673 15.0553 11.5295C14.9742 11.386 14.8573 11.2659 14.7161 11.1809Z" fill="#434343"/>
<path d="M12.5 0C5.87281 0 0.5 5.37281 0.5 12C0.5 18.6272 5.87281 24 12.5 24C19.1272 24 24.5 18.6272 24.5 12C24.5 5.37281 19.1272 0 12.5 0ZM19.7656 14.7619C19.7657 15.0815 19.7028 15.398 19.5805 15.6933C19.4582 15.9886 19.2789 16.2569 19.0529 16.4829C18.8269 16.7089 18.5586 16.8882 18.2633 17.0105C17.968 17.1328 17.6515 17.1957 17.3319 17.1956H7.66813C7.3485 17.1957 7.032 17.1328 6.7367 17.0105C6.44139 16.8882 6.17307 16.7089 5.94707 16.4829C5.72106 16.2569 5.54179 15.9886 5.41951 15.6933C5.29722 15.398 5.23431 15.0815 5.23438 14.7619V9.23812C5.23431 8.9185 5.29722 8.602 5.41951 8.3067C5.54179 8.01139 5.72106 7.74307 5.94707 7.51707C6.17307 7.29106 6.44139 7.11179 6.7367 6.98951C7.032 6.86722 7.3485 6.80431 7.66813 6.80438H17.3319C17.6515 6.80431 17.968 6.86722 18.2633 6.98951C18.5586 7.11179 18.8269 7.29106 19.0529 7.51707C19.2789 7.74307 19.4582 8.01139 19.5805 8.3067C19.7028 8.602 19.7657 8.9185 19.7656 9.23812V14.7619Z" fill="#434343"/>
</g>
<defs>
<clipPath id="clip0_1_1309">
<rect width="24" height="24" fill="white" transform="translate(0.5)"/>
</clipPath>
</defs>
</svg>
