<svg width="150" height="90" viewBox="0 0 150 90" fill="none" xmlns="http://www.w3.org/2000/svg">
<g clip-path="url(#clip0_58_4025)">
<mask id="mask0_58_4025" style="mask-type:luminance" maskUnits="userSpaceOnUse" x="0" y="0" width="150" height="90">
<path d="M145.673 0H4.32692C1.93723 0 0 1.94973 0 4.35484V85.6452C0 88.0503 1.93723 90 4.32692 90H145.673C148.063 90 150 88.0503 150 85.6452V4.35484C150 1.94973 148.063 0 145.673 0Z" fill="white"/>
</mask>
<g mask="url(#mask0_58_4025)">
<mask id="mask1_58_4025" style="mask-type:luminance" maskUnits="userSpaceOnUse" x="0" y="0" width="150" height="90">
<path d="M150 0H0V90H150V0Z" fill="white"/>
</mask>
<g mask="url(#mask1_58_4025)">
<path d="M145.673 0H4.32692C1.93723 0 0 1.94973 0 4.35484V85.6452C0 88.0503 1.93723 90 4.32692 90H145.673C148.063 90 150 88.0503 150 85.6452V4.35484C150 1.94973 148.063 0 145.673 0Z" fill="#5FBB43"/>
<mask id="mask2_58_4025" style="mask-type:alpha" maskUnits="userSpaceOnUse" x="0" y="0" width="150" height="90">
<path d="M145.673 0H4.32692C1.93723 0 0 1.94973 0 4.35484V85.6452C0 88.0503 1.93723 90 4.32692 90H145.673C148.063 90 150 88.0503 150 85.6452V4.35484C150 1.94973 148.063 0 145.673 0Z" fill="url(#paint0_linear_58_4025)"/>
</mask>
<g mask="url(#mask2_58_4025)">
<path d="M75.0682 48.5168V54.6314H71.5859V34.9995H78.0742C84.2321 34.9995 86.8492 37.217 86.8492 41.6485C86.8492 46.2187 83.7848 48.5168 78.0742 48.5168H75.0682ZM75.0682 38.2272V45.2893H78.3395C81.5713 45.2893 83.2431 44.2247 83.2431 41.5608C83.2431 39.1492 81.7893 38.2233 78.398 38.2233L75.0682 38.2272Z" fill="#F5F5F5"/>
<path d="M88.6889 41.594C89.6047 40.9021 91.2769 40.3311 93.6761 40.3311C97.7433 40.3311 99.7498 41.7365 99.7498 45.3812V54.6352H96.6855V52.1103C96.017 53.7351 94.3194 54.8585 92.0876 54.8585C89.2742 54.8585 87.6055 53.2596 87.6055 50.5115C87.6055 47.3133 89.9175 46.4168 93.3414 46.4168H96.4894V45.8017C96.4894 43.8113 95.5441 43.1928 93.6761 43.1928C91.1135 43.1928 89.6377 44.2029 88.6924 45.6887L88.6889 41.594ZM96.4859 49.6842V48.5499H93.7307C91.8078 48.5499 90.8882 48.9157 90.8882 50.1746C90.8882 51.2396 91.6657 51.913 93.1161 51.913C95.3153 51.913 96.3477 50.6506 96.4859 49.6842Z" fill="#F5F5F5"/>
<path d="M101.359 40.6113H104.995L108.811 50.2281L111.93 40.6113H115.383L109.814 56.1195C108.586 59.4822 107.335 60.2396 105.496 60.2396C104.631 60.2396 103.679 59.9875 103.268 59.6251V56.566C103.716 57.006 104.314 57.2574 104.94 57.2683C105.939 57.2683 106.692 56.595 107.223 54.7071L101.359 40.6113Z" fill="#F5F5F5"/>
<path d="M44.4297 41.6073V45.9144L50.1003 49.4933L63.6768 39.4374C63.1977 38.3767 62.5976 37.3763 61.8884 36.4551L50.1003 45.1862L44.4297 41.6073Z" fill="#F5F5F5"/>
<path d="M61.5522 45.2917V45.6032C61.5561 48.1827 60.7018 50.6892 59.1254 52.7232C57.5489 54.7572 55.3412 56.2007 52.8545 56.824C50.368 57.4474 47.7455 57.2139 45.4058 56.1617C43.0661 55.1094 41.144 53.2986 39.946 51.0182C38.748 48.7377 38.3431 46.119 38.7962 43.5801C39.2492 41.0408 40.5339 38.7279 42.4454 37.0097C44.3568 35.2912 46.7848 34.267 49.342 34.1002C51.8992 33.9333 54.4383 34.6334 56.554 36.089L59.462 33.9408C56.8328 31.8019 53.5595 30.6263 50.1792 30.6072C46.799 30.5879 43.5125 31.7259 40.8594 33.8347C38.2063 35.9434 36.3442 38.8976 35.5787 42.2119C34.8131 45.5269 35.1895 49.0048 36.6464 52.0758C38.1031 55.1463 40.5536 57.6272 43.5957 59.1112C46.6377 60.595 50.0905 60.9942 53.3873 60.2424C56.6841 59.4905 59.6292 57.6324 61.739 54.9738C63.8486 52.3152 64.998 49.0132 64.998 45.6102C64.9977 44.7083 64.9174 43.8083 64.7581 42.9208L61.5522 45.2917Z" fill="#F5F5F5"/>
</g>
</g>
</g>
</g>
<defs>
<linearGradient id="paint0_linear_58_4025" x1="0" y1="0" x2="201.391" y2="98.0091" gradientUnits="userSpaceOnUse">
<stop stop-color="#715AFF"/>
<stop offset="1" stop-color="#5290FF"/>
</linearGradient>
<clipPath id="clip0_58_4025">
<rect width="150" height="90" rx="24" fill="white"/>
</clipPath>
</defs>
</svg>
