<svg width="49" height="48" viewBox="0 0 49 48" fill="none" xmlns="http://www.w3.org/2000/svg">
<path d="M29 8H20C13.636 8 10.4541 8 8.47703 10.0084C6.5 12.0168 6.5 15.2493 6.5 21.7143V26.2857C6.5 32.7507 6.5 35.9832 8.47703 37.9916C10.4541 40 13.636 40 20 40H29C35.364 40 38.5459 40 40.523 37.9916C42.5 35.9832 42.5 32.7507 42.5 26.2857V21.7143C42.5 15.2493 42.5 12.0168 40.523 10.0084C38.5459 8 35.364 8 29 8Z" stroke="white"/>
<path d="M14.5 16H20.5" stroke="white" stroke-linecap="round"/>
<path d="M30.5 30V26C30.5 25.0572 30.5 24.5858 30.7929 24.2929C31.0858 24 31.5572 24 32.5 24H40.5C41.4428 24 41.9142 24 42.2071 24.2929C42.5 24.5858 42.5 25.0572 42.5 26V30C42.5 30.9428 42.5 31.4142 42.2071 31.7071C41.9142 32 41.4428 32 40.5 32H32.5C31.5572 32 31.0858 32 30.7929 31.7071C30.5 31.4142 30.5 30.9428 30.5 30Z" stroke="white"/>
</svg>
