<svg width="49" height="48" viewBox="0 0 49 48" fill="none" xmlns="http://www.w3.org/2000/svg">
<path d="M39.2224 34C40.7145 34.9121 41.5 35.9468 41.5 37C41.5 38.0532 40.7145 39.0879 39.2224 40C37.7304 40.9121 35.5843 41.6695 33 42.1962C30.4157 42.7228 27.4841 43 24.5 43C21.5159 43 18.5843 42.7228 16 42.1962C13.4157 41.6695 11.2696 40.9121 9.77757 40C8.28551 39.0879 7.5 38.0532 7.5 37C7.5 35.9468 8.28551 34.9121 9.77757 34" stroke="white" stroke-linecap="round"/>
<path d="M39.5 20C39.5 30.5515 27.3667 37.4922 24.925 38.7821C24.6545 38.925 24.3455 38.925 24.075 38.7821C21.6333 37.4922 9.5 30.5515 9.5 20C9.5 11 16.768 5 24.5 5C32.5 5 39.5 11 39.5 20Z" stroke="white"/>
<circle cx="24.5" cy="20" r="7.5" stroke="white"/>
</svg>
